<svg xmlns="http://www.w3.org/2000/svg" viewBox="0 0 1560 400"><defs><style>.cls-1,.cls-157{fill:#333;}.cls-2{fill:#4579bd;}.cls-3,.cls-89{font-size:20px;}.cls-135,.cls-3,.cls-51{fill:#fff;}.cls-227,.cls-240,.cls-3,.cls-36,.cls-44,.cls-51{font-family:Rubik-Medium, Rubik;}.cls-144,.cls-186,.cls-227,.cls-240,.cls-267,.cls-3,.cls-36,.cls-44,.cls-51{font-weight:500;}.cls-3{letter-spacing:0.01em;}.cls-4{letter-spacing:-0.02em;}.cls-5{letter-spacing:-0.01em;}.cls-6{letter-spacing:-0.02em;}.cls-7{letter-spacing:-0.01em;}.cls-8{letter-spacing:-0.03em;}.cls-9{letter-spacing:-0.01em;}.cls-10{letter-spacing:-0.01em;}.cls-11,.cls-122{letter-spacing:-0.02em;}.cls-12,.cls-13{letter-spacing:-0.01em;}.cls-100,.cls-101,.cls-102,.cls-103,.cls-104,.cls-105,.cls-106,.cls-107,.cls-108,.cls-109,.cls-110,.cls-111,.cls-112,.cls-113,.cls-114,.cls-115,.cls-116,.cls-117,.cls-118,.cls-119,.cls-120,.cls-121,.cls-122,.cls-123,.cls-124,.cls-125,.cls-126,.cls-127,.cls-128,.cls-129,.cls-13,.cls-130,.cls-131,.cls-132,.cls-133,.cls-134,.cls-14,.cls-15,.cls-157,.cls-224,.cls-244,.cls-245,.cls-246,.cls-247,.cls-248,.cls-252,.cls-90,.cls-91,.cls-92,.cls-93,.cls-94,.cls-95,.cls-96,.cls-97,.cls-98,.cls-99{font-family:Rubik-Light, Rubik;font-weight:300;}.cls-14{letter-spacing:-0.02em;}.cls-15{letter-spacing:-0.02em;}.cls-16{letter-spacing:-0.02em;}.cls-17{letter-spacing:-0.02em;}.cls-18{letter-spacing:-0.01em;}.cls-19{letter-spacing:-0.01em;}.cls-20{letter-spacing:-0.02em;}.cls-21{letter-spacing:-0.02em;}.cls-22{letter-spacing:-0.02em;}.cls-23{letter-spacing:-0.02em;}.cls-24{letter-spacing:-0.02em;}.cls-25{letter-spacing:-0.02em;}.cls-26{letter-spacing:-0.02em;}.cls-27{letter-spacing:-0.02em;}.cls-28{letter-spacing:-0.03em;}.cls-29{letter-spacing:-0.01em;}.cls-30{letter-spacing:-0.02em;}.cls-31{letter-spacing:-0.01em;}.cls-32{letter-spacing:-0.02em;}.cls-33{letter-spacing:-0.02em;}.cls-34{letter-spacing:-0.02em;}.cls-35{fill:#666;}.cls-252,.cls-294,.cls-36,.cls-44,.cls-51{font-size:18px;}.cls-36,.cls-44,.cls-65{fill:#ccc;}.cls-36,.cls-55{letter-spacing:-0.03em;}.cls-37{letter-spacing:-0.02em;}.cls-38{letter-spacing:-0.02em;}.cls-39{letter-spacing:-0.02em;}.cls-40{letter-spacing:-0.01em;}.cls-257,.cls-41{letter-spacing:-0.02em;}.cls-42{letter-spacing:-0.02em;}.cls-43{letter-spacing:-0.02em;}.cls-44{letter-spacing:-0.02em;}.cls-45{letter-spacing:-0.02em;}.cls-46{letter-spacing:-0.04em;}.cls-47{letter-spacing:-0.04em;}.cls-48{letter-spacing:-0.02em;}.cls-49,.cls-94{letter-spacing:-0.02em;}.cls-50,.cls-89{fill:#f58a1f;}.cls-300,.cls-51{letter-spacing:-0.01em;}.cls-52{letter-spacing:-0.04em;}.cls-53{letter-spacing:-0.02em;}.cls-54{letter-spacing:-0.02em;}.cls-56{letter-spacing:-0.02em;}.cls-57{letter-spacing:-0.02em;}.cls-58{letter-spacing:-0.02em;}.cls-59{letter-spacing:-0.03em;}.cls-60{letter-spacing:-0.03em;}.cls-61{letter-spacing:-0.02em;}.cls-62{letter-spacing:-0.02em;}.cls-63{letter-spacing:-0.02em;}.cls-64{letter-spacing:-0.02em;}.cls-136,.cls-181,.cls-214,.cls-232,.cls-66,.cls-75,.cls-83{font-size:19px;}.cls-136,.cls-163,.cls-164,.cls-165,.cls-167,.cls-168,.cls-169,.cls-170,.cls-175,.cls-176,.cls-177,.cls-178,.cls-179,.cls-180,.cls-181,.cls-193,.cls-194,.cls-195,.cls-196,.cls-197,.cls-198,.cls-199,.cls-200,.cls-201,.cls-202,.cls-203,.cls-204,.cls-205,.cls-206,.cls-207,.cls-208,.cls-209,.cls-213,.cls-214,.cls-232,.cls-241,.cls-257,.cls-277,.cls-278,.cls-279,.cls-280,.cls-287,.cls-288,.cls-289,.cls-290,.cls-291,.cls-293,.cls-294,.cls-66,.cls-75,.cls-83{font-family:Rubik-Regular, Rubik;}.cls-66,.cls-87{letter-spacing:-0.02em;}.cls-67{letter-spacing:-0.03em;}.cls-68{letter-spacing:-0.04em;}.cls-69{letter-spacing:-0.04em;}.cls-70{letter-spacing:-0.02em;}.cls-71{letter-spacing:-0.02em;}.cls-72{letter-spacing:-0.01em;}.cls-73{letter-spacing:-0.02em;}.cls-74{letter-spacing:-0.02em;}.cls-75{letter-spacing:-0.02em;}.cls-76{letter-spacing:-0.02em;}.cls-77{letter-spacing:-0.03em;}.cls-78{letter-spacing:-0.01em;}.cls-79{letter-spacing:-0.02em;}.cls-80{letter-spacing:-0.03em;}.cls-81{letter-spacing:-0.04em;}.cls-82{letter-spacing:-0.04em;}.cls-83{letter-spacing:-0.01em;}.cls-84{letter-spacing:-0.04em;}.cls-85{letter-spacing:-0.02em;}.cls-86{letter-spacing:-0.03em;}.cls-88{fill:#ffc10e;}.cls-89{font-family:AdobeMyungjoStd-Medium-KSCpc-EUC-H, Adobe Myungjo Std;letter-spacing:-0.02em;}.cls-90{letter-spacing:-0.04em;}.cls-91{letter-spacing:0.01em;}.cls-93{letter-spacing:-0.03em;}.cls-95{letter-spacing:-0.03em;}.cls-96{letter-spacing:-0.03em;}.cls-97{letter-spacing:-0.03em;}.cls-98{letter-spacing:-0.03em;}.cls-99{letter-spacing:-0.02em;}.cls-100{letter-spacing:-0.03em;}.cls-101{letter-spacing:-0.03em;}.cls-102{letter-spacing:-0.02em;}.cls-103{letter-spacing:-0.03em;}.cls-104{letter-spacing:-0.03em;}.cls-105{letter-spacing:-0.02em;}.cls-106{letter-spacing:-0.04em;}.cls-107{letter-spacing:-0.02em;}.cls-108{letter-spacing:-0.04em;}.cls-109{letter-spacing:-0.03em;}.cls-110{letter-spacing:-0.03em;}.cls-111{letter-spacing:-0.03em;}.cls-112{letter-spacing:-0.03em;}.cls-113{letter-spacing:-0.03em;}.cls-114{letter-spacing:-0.03em;}.cls-115{letter-spacing:-0.03em;}.cls-116{letter-spacing:-0.02em;}.cls-117{letter-spacing:-0.03em;}.cls-118{letter-spacing:-0.03em;}.cls-119{letter-spacing:-0.03em;}.cls-120{letter-spacing:-0.03em;}.cls-121{letter-spacing:-0.04em;}.cls-123{letter-spacing:-0.02em;}.cls-124{letter-spacing:-0.02em;}.cls-125{letter-spacing:-0.03em;}.cls-126{letter-spacing:0em;}.cls-127{letter-spacing:-0.04em;}.cls-128{letter-spacing:-0.02em;}.cls-129{letter-spacing:-0.03em;}.cls-130{letter-spacing:-0.02em;}.cls-131{letter-spacing:-0.01em;}.cls-132{letter-spacing:-0.03em;}.cls-133{letter-spacing:-0.03em;}.cls-134{letter-spacing:-0.03em;}.cls-136{letter-spacing:-0.02em;}.cls-137{letter-spacing:-0.01em;}.cls-138{letter-spacing:-0.03em;}.cls-139{letter-spacing:-0.03em;}.cls-140{letter-spacing:-0.03em;}.cls-141{letter-spacing:-0.01em;}.cls-142{letter-spacing:0.01em;}.cls-143{letter-spacing:-0.04em;}.cls-144,.cls-186,.cls-241,.cls-267{font-size:15px;}.cls-144,.cls-186,.cls-267{font-family:Rubik-MediumItalic, Rubik;font-style:italic;}.cls-144{letter-spacing:-0.03em;}.cls-145{letter-spacing:-0.03em;}.cls-146{letter-spacing:-0.05em;}.cls-147{letter-spacing:-0.02em;}.cls-148{letter-spacing:-0.1em;}.cls-149{letter-spacing:-0.03em;}.cls-150{letter-spacing:-0.02em;}.cls-151{letter-spacing:-0.03em;}.cls-152{letter-spacing:-0.01em;}.cls-153{letter-spacing:-0.02em;}.cls-154{letter-spacing:-0.02em;}.cls-155{letter-spacing:-0.01em;}.cls-156{letter-spacing:-0.02em;}.cls-157{font-size:13px;font-style:normal;letter-spacing:-0.02em;}.cls-158{letter-spacing:-0.01em;}.cls-159{letter-spacing:-0.03em;}.cls-160{letter-spacing:-0.02em;}.cls-161{letter-spacing:-0.02em;}.cls-162{letter-spacing:-0.03em;}.cls-163,.cls-164,.cls-165,.cls-167,.cls-168,.cls-169,.cls-170,.cls-175,.cls-176,.cls-177,.cls-178,.cls-179,.cls-180,.cls-193,.cls-194,.cls-195,.cls-196,.cls-197,.cls-198,.cls-199,.cls-200,.cls-201,.cls-202,.cls-203,.cls-204,.cls-205,.cls-206,.cls-207,.cls-208,.cls-209,.cls-213,.cls-257,.cls-277,.cls-278,.cls-279,.cls-280,.cls-287,.cls-288,.cls-289,.cls-290,.cls-291,.cls-293{font-weight:400;}.cls-163,.cls-164,.cls-165,.cls-166,.cls-167,.cls-168,.cls-169,.cls-170,.cls-175,.cls-176,.cls-177,.cls-178,.cls-179,.cls-180,.cls-193,.cls-194,.cls-195,.cls-196,.cls-197,.cls-198,.cls-199,.cls-200,.cls-201,.cls-202,.cls-203,.cls-204,.cls-205,.cls-206,.cls-207,.cls-208,.cls-209,.cls-213,.cls-277,.cls-278,.cls-279,.cls-280,.cls-287,.cls-288,.cls-289,.cls-290,.cls-291,.cls-292,.cls-293{fill:#000;}.cls-164{letter-spacing:-0.02em;}.cls-165{letter-spacing:-0.04em;}.cls-167{letter-spacing:-0.02em;}.cls-168{letter-spacing:-0.01em;}.cls-169{letter-spacing:-0.03em;}.cls-170{letter-spacing:0em;}.cls-171{letter-spacing:-0.03em;}.cls-172{letter-spacing:-0.03em;}.cls-173{letter-spacing:-0.03em;}.cls-174{letter-spacing:-0.03em;}.cls-175{letter-spacing:-0.02em;}.cls-176{letter-spacing:-0.02em;}.cls-177{letter-spacing:-0.03em;}.cls-178{letter-spacing:-0.03em;}.cls-179{letter-spacing:0.02em;}.cls-180,.cls-292{letter-spacing:-0.02em;}.cls-181{letter-spacing:-0.03em;}.cls-182{letter-spacing:-0.03em;}.cls-183{letter-spacing:-0.02em;}.cls-184{letter-spacing:-0.01em;}.cls-185{letter-spacing:0.01em;}.cls-186{letter-spacing:-0.02em;}.cls-187{letter-spacing:-0.02em;}.cls-188,.cls-248{letter-spacing:-0.02em;}.cls-189{letter-spacing:-0.02em;}.cls-190{letter-spacing:-0.03em;}.cls-191{letter-spacing:-0.03em;}.cls-192{letter-spacing:-0.03em;}.cls-193{letter-spacing:-0.05em;}.cls-194{letter-spacing:-0.02em;}.cls-195{letter-spacing:-0.02em;}.cls-196{letter-spacing:-0.02em;}.cls-197{letter-spacing:-0.03em;}.cls-198{letter-spacing:-0.04em;}.cls-199{letter-spacing:-0.02em;}.cls-200{letter-spacing:-0.03em;}.cls-201{letter-spacing:-0.15em;}.cls-202{letter-spacing:-0.03em;}.cls-203{letter-spacing:-0.11em;}.cls-204{letter-spacing:-0.02em;}.cls-205{letter-spacing:-0.03em;}.cls-206{letter-spacing:-0.02em;}.cls-207{letter-spacing:-0.09em;}.cls-208,.cls-212{letter-spacing:-0.02em;}.cls-209{letter-spacing:-0.02em;}.cls-210{letter-spacing:-0.03em;}.cls-211{letter-spacing:-0.03em;}.cls-213{letter-spacing:-0.02em;}.cls-214{letter-spacing:0em;}.cls-215{letter-spacing:-0.03em;}.cls-216{letter-spacing:-0.01em;}.cls-217{letter-spacing:-0.02em;}.cls-218{letter-spacing:0em;}.cls-219{letter-spacing:-0.01em;}.cls-220{letter-spacing:-0.02em;}.cls-221{letter-spacing:0em;}.cls-222{letter-spacing:-0.01em;}.cls-223{letter-spacing:0em;}.cls-224,.cls-225{letter-spacing:-0.01em;}.cls-226{letter-spacing:-0.01em;}.cls-227,.cls-240{font-size:16px;}.cls-227{letter-spacing:-0.01em;}.cls-228{letter-spacing:-0.01em;}.cls-229{letter-spacing:-0.01em;}.cls-230{letter-spacing:-0.01em;}.cls-231{letter-spacing:-0.01em;}.cls-232{letter-spacing:-0.02em;}.cls-233{letter-spacing:0em;}.cls-234{letter-spacing:-0.03em;}.cls-235{letter-spacing:-0.02em;}.cls-236{letter-spacing:-0.01em;}.cls-237{letter-spacing:0em;}.cls-238{letter-spacing:-0.02em;}.cls-239{letter-spacing:-0.02em;}.cls-240{letter-spacing:0em;}.cls-241{letter-spacing:-0.04em;}.cls-242{letter-spacing:0.01em;}.cls-243{letter-spacing:-0.01em;}.cls-244{letter-spacing:-0.02em;}.cls-245{letter-spacing:-0.04em;}.cls-246{letter-spacing:-0.04em;}.cls-247,.cls-269{letter-spacing:-0.03em;}.cls-249{letter-spacing:-0.03em;}.cls-250{letter-spacing:-0.02em;}.cls-251{letter-spacing:-0.02em;}.cls-252{letter-spacing:-0.03em;}.cls-253{letter-spacing:-0.03em;}.cls-254{letter-spacing:-0.03em;}.cls-255{letter-spacing:-0.03em;}.cls-256{letter-spacing:-0.04em;}.cls-258{letter-spacing:-0.02em;}.cls-259{letter-spacing:-0.02em;}.cls-260{letter-spacing:-0.03em;}.cls-261{letter-spacing:-0.02em;}.cls-262{letter-spacing:-0.02em;}.cls-263{letter-spacing:0em;}.cls-264{letter-spacing:-0.03em;}.cls-265{letter-spacing:-0.02em;}.cls-266{letter-spacing:-0.01em;}.cls-267{letter-spacing:-0.02em;}.cls-268{letter-spacing:-0.03em;}.cls-270{letter-spacing:-0.02em;}.cls-271{letter-spacing:-0.02em;}.cls-272{letter-spacing:-0.03em;}.cls-273{letter-spacing:0em;}.cls-274,.cls-279{letter-spacing:-0.03em;}.cls-275{letter-spacing:-0.02em;}.cls-276{letter-spacing:-0.02em;}.cls-277{letter-spacing:-0.04em;}.cls-278{letter-spacing:-0.01em;}.cls-280{letter-spacing:-0.01em;}.cls-281{letter-spacing:-0.03em;}.cls-282{letter-spacing:-0.02em;}.cls-283{letter-spacing:-0.02em;}.cls-284{letter-spacing:-0.02em;}.cls-285{letter-spacing:-0.02em;}.cls-286{letter-spacing:-0.02em;}.cls-287{letter-spacing:-0.03em;}.cls-288{letter-spacing:-0.02em;}.cls-289{letter-spacing:-0.03em;}.cls-290{letter-spacing:-0.04em;}.cls-291{letter-spacing:-0.04em;}.cls-293{letter-spacing:-0.01em;}.cls-294{letter-spacing:-0.02em;}.cls-295{letter-spacing:0.02em;}.cls-296{letter-spacing:-0.02em;}.cls-297{letter-spacing:-0.03em;}.cls-298{letter-spacing:-0.03em;}.cls-299{letter-spacing:-0.03em;}</style></defs><g id="Layer_2" data-name="Layer 2"><g id="Layer_1-2" data-name="Layer 1"><rect class="cls-1" width="1560" height="400"/><polygon class="cls-2" points="1530 57.9 1477.49 22.5 1477.49 38.84 30 38.84 30 76.96 1477.49 76.96 1477.49 93.31 1530 57.9"/><text class="cls-3" transform="translate(552.22 64.29)">L<tspan class="cls-4" x="11.71" y="0">a</tspan><tspan class="cls-5" x="22.76" y="0">r</tspan><tspan class="cls-6" x="30.86" y="0">g</tspan><tspan class="cls-7" x="42.79" y="0">e</tspan><tspan class="cls-8" x="54.07" y="0">-</tspan><tspan class="cls-9" x="63.03" y="0">S</tspan><tspan class="cls-10" x="75.67" y="0">c</tspan><tspan class="cls-11" x="86.94" y="0">al</tspan><tspan class="cls-12" x="102.9" y="0">e</tspan><tspan class="cls-13" x="114.14" y="0"> </tspan><tspan class="cls-14" x="119" y="0">a</tspan><tspan class="cls-15" x="129.24" y="0">n</tspan><tspan class="cls-13" x="140.59" y="0">d </tspan><tspan class="cls-16" x="156.75" y="0">S</tspan><tspan class="cls-17" x="169.24" y="0">u</tspan><tspan class="cls-18" x="181.26" y="0">b</tspan><tspan class="cls-8" x="193.24" y="0">-</tspan><tspan class="cls-19" x="202.2" y="0">S</tspan><tspan class="cls-20" x="214.87" y="0">e</tspan><tspan class="cls-21" x="226.09" y="0">c</tspan><tspan class="cls-22" x="237.19" y="0">o</tspan><tspan class="cls-23" x="248.67" y="0">n</tspan><tspan class="cls-12" x="260.8" y="0">d </tspan><tspan x="277.04" y="0">L</tspan><tspan class="cls-24" x="288.75" y="0">a</tspan><tspan class="cls-25" x="299.8" y="0">t</tspan><tspan class="cls-26" x="307.96" y="0">e</tspan><tspan class="cls-27" x="319.16" y="0">n</tspan><tspan class="cls-28" x="331.26" y="0">c</tspan><tspan class="cls-12" x="342.16" y="0">y </tspan><tspan class="cls-29" x="357.62" y="0">S</tspan><tspan class="cls-30" x="370.34" y="0">t</tspan><tspan class="cls-31" x="378.57" y="0">r</tspan><tspan class="cls-32" x="386.64" y="0">e</tspan><tspan class="cls-4" x="397.85" y="0">a</tspan><tspan class="cls-33" x="408.9" y="0">m</tspan><tspan class="cls-34" x="426.55" y="0">in</tspan><tspan class="cls-12" x="443.54" y="0">g</tspan></text><rect class="cls-35" x="30.46" y="114.15" width="434" height="32" rx="16"/><text class="cls-36" transform="translate(191.37 136.12)">M<tspan class="cls-37" x="14.14" y="0">e</tspan><tspan class="cls-38" x="24.17" y="0">d</tspan><tspan class="cls-39" x="34.77" y="0">i</tspan><tspan class="cls-37" x="39.08" y="0">a </tspan><tspan class="cls-40" x="52.76" y="0">S</tspan><tspan class="cls-39" x="64.06" y="0">o</tspan><tspan class="cls-41" x="74.28" y="0">u</tspan><tspan class="cls-42" x="85.03" y="0">r</tspan><tspan class="cls-43" x="92.25" y="0">c</tspan><tspan class="cls-37" x="102.16" y="0">e</tspan></text><rect class="cls-35" x="1368.54" y="114.15" width="161" height="32" rx="16"/><text class="cls-44" transform="translate(1422.93 136.12)">P<tspan class="cls-45" x="11.46" y="0">l</tspan><tspan class="cls-46" x="15.83" y="0">a</tspan><tspan class="cls-47" x="25.38" y="0">y</tspan><tspan class="cls-48" x="35.03" y="0">e</tspan><tspan class="cls-49" x="45.03" y="0">r</tspan></text><rect class="cls-50" x="516.14" y="114.15" width="801" height="32" rx="16"/><text class="cls-51" transform="translate(842.2 135.83)">O<tspan class="cls-52" x="12.25" y="0">v</tspan><tspan class="cls-53" x="21.88" y="0">e</tspan><tspan class="cls-54" x="31.88" y="0">n</tspan><tspan class="cls-55" x="42.66" y="0">M</tspan><tspan class="cls-56" x="56.8" y="0">e</tspan><tspan class="cls-57" x="66.83" y="0">d</tspan><tspan class="cls-58" x="77.43" y="0">i</tspan><tspan class="cls-59" x="81.74" y="0">a</tspan><tspan class="cls-60" x="91.56" y="0">E</tspan><tspan class="cls-61" x="102.25" y="0">n</tspan><tspan class="cls-62" x="113.07" y="0">g</tspan><tspan class="cls-63" x="123.73" y="0">i</tspan><tspan class="cls-64" x="128.06" y="0">n</tspan><tspan class="cls-56" x="138.86" y="0">e</tspan></text><rect class="cls-65" x="1369.17" y="288.94" width="159.75" height="49.75"/><path d="M1528.79,289.06v49.5h-159.5v-49.5h159.5m.25-.25H1369v50h160v-50Z"/><text class="cls-66" transform="translate(1403.24 319.31)">P<tspan class="cls-67" x="11.78" y="0">l</tspan><tspan class="cls-68" x="15.92" y="0">a</tspan><tspan class="cls-69" x="25.67" y="0">y</tspan><tspan class="cls-70" x="35.45" y="0">e</tspan><tspan class="cls-71" x="45.62" y="0">r </tspan><tspan class="cls-72" x="56.74" y="0">A</tspan><tspan class="cls-73" x="69.2" y="0">p</tspan><tspan class="cls-74" x="80.06" y="0">p</tspan></text><rect class="cls-65" x="1369.17" y="227.71" width="159.75" height="49.75"/><path d="M1528.79,227.84v49.5h-159.5v-49.5h159.5m.25-.25H1369v50h160v-50Z"/><text class="cls-75" transform="translate(1390.51 258.09)">H<tspan class="cls-76" x="13.21" y="0">T</tspan><tspan class="cls-77" x="23.85" y="0">M</tspan><tspan class="cls-78" x="38.33" y="0">L</tspan><tspan class="cls-71" x="48.82" y="0">5 </tspan><tspan class="cls-79" x="64" y="0">P</tspan><tspan class="cls-80" x="75.79" y="0">l</tspan><tspan class="cls-81" x="79.93" y="0">a</tspan><tspan class="cls-82" x="89.67" y="0">y</tspan><tspan class="cls-70" x="99.45" y="0">e</tspan><tspan class="cls-71" x="109.63" y="0">r</tspan></text><rect class="cls-65" x="1369.17" y="166.48" width="159.75" height="49.75"/><path d="M1528.79,166.61v49.5h-159.5v-49.5h159.5m.25-.25H1369v50h160v-50Z"/><text class="cls-83" transform="translate(1400.75 196.86)">O<tspan class="cls-84" x="12.58" y="0">v</tspan><tspan class="cls-85" x="22.38" y="0">e</tspan><tspan class="cls-86" x="32.55" y="0">n</tspan><tspan class="cls-87" x="43.52" y="0">P</tspan><tspan class="cls-67" x="55.3" y="0">l</tspan><tspan class="cls-68" x="59.44" y="0">a</tspan><tspan class="cls-69" x="69.19" y="0">y</tspan><tspan class="cls-70" x="78.97" y="0">e</tspan><tspan class="cls-71" x="89.14" y="0">r</tspan></text><rect class="cls-88" x="269.44" y="157.48" width="1081" height="190"/><text class="cls-89" transform="translate(419.11 372.75)">※ <tspan class="cls-90" x="25.86" y="0">O</tspan><tspan class="cls-91" x="38.34" y="0">V</tspan><tspan class="cls-92" x="51.32" y="0">T </tspan><tspan class="cls-93" x="66.81" y="0">i</tspan><tspan class="cls-94" x="70.64" y="0">s a </tspan><tspan class="cls-95" x="99.92" y="0">p</tspan><tspan class="cls-96" x="111.02" y="0">r</tspan><tspan class="cls-97" x="117.45" y="0">o</tspan><tspan class="cls-98" x="127.99" y="0">t</tspan><tspan class="cls-99" x="134.52" y="0">oc</tspan><tspan class="cls-100" x="155.48" y="0">o</tspan><tspan class="cls-92" x="166.08" y="0">l </tspan><tspan class="cls-101" x="174.94" y="0">d</tspan><tspan class="cls-102" x="186" y="0">e</tspan><tspan class="cls-103" x="196.44" y="0">fi</tspan><tspan class="cls-104" x="205.84" y="0">n</tspan><tspan class="cls-105" x="217.09" y="0">e</tspan><tspan class="cls-92" x="227.62" y="0">d </tspan><tspan class="cls-106" x="243.58" y="0">b</tspan><tspan class="cls-92" x="254.4" y="0">y </tspan><tspan class="cls-107" x="269.4" y="0">O</tspan><tspan class="cls-108" x="282.33" y="0">v</tspan><tspan class="cls-109" x="292.28" y="0">e</tspan><tspan class="cls-110" x="302.64" y="0">n</tspan><tspan class="cls-111" x="313.8" y="0">M</tspan><tspan class="cls-105" x="328.82" y="0">e</tspan><tspan class="cls-112" x="339.35" y="0">d</tspan><tspan class="cls-113" x="350.35" y="0">i</tspan><tspan class="cls-114" x="354.15" y="0">E</tspan><tspan class="cls-100" x="365.37" y="0">n</tspan><tspan class="cls-115" x="376.61" y="0">gi</tspan><tspan class="cls-104" x="391.47" y="0">n</tspan><tspan class="cls-116" x="402.72" y="0">e </tspan><tspan class="cls-117" x="418" y="0">f</tspan><tspan class="cls-118" x="424.63" y="0">o</tspan><tspan class="cls-116" x="435.24" y="0">r </tspan><tspan class="cls-119" x="446.56" y="0">re</tspan><tspan class="cls-120" x="463.31" y="0">l</tspan><tspan class="cls-121" x="467.25" y="0">a</tspan><tspan class="cls-116" x="477.18" y="0">y </tspan><tspan class="cls-122" x="492.18" y="0">st</tspan><tspan class="cls-119" x="508.44" y="0">r</tspan><tspan class="cls-123" x="514.83" y="0">e</tspan><tspan class="cls-111" x="525.33" y="0">am</tspan><tspan class="cls-94" x="552.46" y="0">s </tspan><tspan class="cls-124" x="566.66" y="0">b</tspan><tspan class="cls-125" x="577.82" y="0">e</tspan><tspan class="cls-126" x="588.15" y="0">t</tspan><tspan class="cls-127" x="595.26" y="0">w</tspan><tspan class="cls-128" x="610.22" y="0">e</tspan><tspan class="cls-129" x="620.75" y="0">e</tspan><tspan class="cls-116" x="631.12" y="0">n </tspan><tspan class="cls-130" x="647.28" y="0">O</tspan><tspan class="cls-131" x="660.05" y="0">r</tspan><tspan class="cls-132" x="666.74" y="0">i</tspan><tspan class="cls-115" x="670.6" y="0">gi</tspan><tspan class="cls-94" x="685.45" y="0">n </tspan><tspan class="cls-111" x="701.61" y="0">a</tspan><tspan class="cls-104" x="711.75" y="0">n</tspan><tspan class="cls-94" x="723.01" y="0">d </tspan><tspan class="cls-133" x="738.97" y="0">E</tspan><tspan class="cls-134" x="750.13" y="0">dg</tspan><tspan class="cls-94" x="772.26" y="0">e</tspan></text><rect class="cls-135" x="517.77" y="166.28" width="159.75" height="49.75"/><path d="M677.39,166.41v49.5H517.89v-49.5h159.5m.25-.25h-160v50h160v-50Z"/><text class="cls-136" transform="translate(542.47 196.66)">O<tspan class="cls-137" x="12.47" y="0">r</tspan><tspan class="cls-138" x="19.44" y="0">i</tspan><tspan class="cls-139" x="23.52" y="0">g</tspan><tspan class="cls-140" x="34.33" y="0">i</tspan><tspan class="cls-71" x="38.42" y="0">n </tspan><tspan class="cls-141" x="53.82" y="0">S</tspan><tspan class="cls-85" x="65.38" y="0">e</tspan><tspan class="cls-142" x="75.55" y="0">r</tspan><tspan class="cls-143" x="82.93" y="0">v</tspan><tspan class="cls-85" x="92.73" y="0">e</tspan><tspan class="cls-71" x="102.9" y="0">r</tspan></text><text class="cls-144" transform="translate(540.03 295.38) scale(0.98 1)">L<tspan class="cls-145" x="8.22" y="0">i</tspan><tspan class="cls-146" x="11.69" y="0">v</tspan><tspan class="cls-147" x="19.51" y="0">e </tspan><tspan class="cls-148" x="31.03" y="0">T</tspan><tspan class="cls-149" x="38.6" y="0">r</tspan><tspan class="cls-150" x="44.51" y="0">a</tspan><tspan class="cls-151" x="53.37" y="0">n</tspan><tspan class="cls-152" x="62.29" y="0">s</tspan><tspan class="cls-153" x="70.07" y="0">co</tspan><tspan class="cls-154" x="86.93" y="0">d</tspan><tspan class="cls-155" x="95.87" y="0">i</tspan><tspan class="cls-156" x="99.61" y="0">n</tspan><tspan class="cls-147" x="108.69" y="0">g</tspan><tspan class="cls-157"><tspan x="2.85" y="20">- </tspan><tspan class="cls-158" x="12.01" y="20">V</tspan><tspan class="cls-159" x="20.14" y="20">i</tspan><tspan class="cls-160" x="22.7" y="20">d</tspan><tspan class="cls-161" x="29.92" y="20">e</tspan><tspan class="cls-162" x="36.79" y="20">o</tspan><tspan x="43.69" y="20">: </tspan><tspan class="cls-163" x="49.66" y="20">V</tspan><tspan class="cls-164" x="57.91" y="20">P</tspan><tspan class="cls-165" x="66.02" y="20">8</tspan><tspan class="cls-166" x="73.74" y="20">, </tspan><tspan class="cls-167" x="79.66" y="20">H</tspan><tspan class="cls-168" x="88.67" y="20">.</tspan><tspan class="cls-169" x="91.84" y="20">2</tspan><tspan class="cls-170" x="99.07" y="20">6</tspan><tspan class="cls-163" x="106.97" y="20">4</tspan><tspan x="4.58" y="35">- </tspan><tspan class="cls-171" x="13.75" y="35">A</tspan><tspan class="cls-160" x="21.8" y="35">u</tspan><tspan class="cls-172" x="29.1" y="35">d</tspan><tspan class="cls-173" x="36.29" y="35">i</tspan><tspan class="cls-174" x="38.86" y="35">o</tspan><tspan x="45.76" y="35">: </tspan><tspan class="cls-175" x="51.72" y="35">O</tspan><tspan class="cls-176" x="60.28" y="35">p</tspan><tspan class="cls-177" x="67.72" y="35">u</tspan><tspan class="cls-178" x="75.21" y="35">s</tspan><tspan class="cls-166" x="81.46" y="35">, </tspan><tspan class="cls-179" x="87.38" y="35">A</tspan><tspan class="cls-169" x="96.34" y="35">A</tspan><tspan class="cls-180" x="104.66" y="35">C</tspan></tspan></text><rect class="cls-135" x="517.77" y="227.51" width="159.75" height="49.75"/><path d="M677.39,227.63v49.5H517.89v-49.5h159.5m.25-.25h-160v50h160v-50Z"/><text class="cls-136" transform="translate(542.47 257.88)">O<tspan class="cls-137" x="12.47" y="0">r</tspan><tspan class="cls-138" x="19.44" y="0">i</tspan><tspan class="cls-139" x="23.52" y="0">g</tspan><tspan class="cls-140" x="34.33" y="0">i</tspan><tspan class="cls-71" x="38.42" y="0">n </tspan><tspan class="cls-141" x="53.82" y="0">S</tspan><tspan class="cls-85" x="65.38" y="0">e</tspan><tspan class="cls-142" x="75.55" y="0">r</tspan><tspan class="cls-143" x="82.93" y="0">v</tspan><tspan class="cls-85" x="92.73" y="0">e</tspan><tspan class="cls-71" x="102.9" y="0">r</tspan></text><rect class="cls-135" x="943.77" y="288.94" width="159.75" height="49.75"/><path d="M1103.39,289.06v49.5H943.89v-49.5h159.5m.25-.25h-160v50h160v-50Z"/><text class="cls-181" transform="translate(971.84 319.31)">E<tspan class="cls-182" x="10.86" y="0">dg</tspan><tspan class="cls-183" x="32.55" y="0">e </tspan><tspan class="cls-184" x="47.08" y="0">S</tspan><tspan class="cls-70" x="58.64" y="0">e</tspan><tspan class="cls-185" x="68.81" y="0">r</tspan><tspan class="cls-84" x="76.19" y="0">v</tspan><tspan class="cls-85" x="85.98" y="0">e</tspan><tspan class="cls-71" x="96.16" y="0">r</tspan></text><rect class="cls-135" x="943.77" y="227.71" width="159.75" height="49.75"/><path d="M1103.39,227.84v49.5H943.89v-49.5h159.5m.25-.25h-160v50h160v-50Z"/><text class="cls-181" transform="translate(971.84 258.09)">E<tspan class="cls-182" x="10.86" y="0">dg</tspan><tspan class="cls-183" x="32.55" y="0">e </tspan><tspan class="cls-184" x="47.08" y="0">S</tspan><tspan class="cls-70" x="58.64" y="0">e</tspan><tspan class="cls-185" x="68.81" y="0">r</tspan><tspan class="cls-84" x="76.19" y="0">v</tspan><tspan class="cls-85" x="85.98" y="0">e</tspan><tspan class="cls-71" x="96.16" y="0">r</tspan></text><rect class="cls-135" x="943.77" y="166.48" width="159.75" height="49.75"/><path d="M1103.39,166.61v49.5H943.89v-49.5h159.5m.25-.25h-160v50h160v-50Z"/><text class="cls-181" transform="translate(971.84 196.86)">E<tspan class="cls-182" x="10.86" y="0">dg</tspan><tspan class="cls-183" x="32.55" y="0">e </tspan><tspan class="cls-184" x="47.08" y="0">S</tspan><tspan class="cls-70" x="58.64" y="0">e</tspan><tspan class="cls-185" x="68.81" y="0">r</tspan><tspan class="cls-84" x="76.19" y="0">v</tspan><tspan class="cls-85" x="85.98" y="0">e</tspan><tspan class="cls-71" x="96.16" y="0">r</tspan></text><text class="cls-186" transform="translate(366.47 208.98) scale(0.98 1)">I<tspan class="cls-187" x="4.21" y="0">n</tspan><tspan class="cls-188" x="13.28" y="0">p</tspan><tspan class="cls-149" x="22.16" y="0">u</tspan><tspan class="cls-188" x="31.1" y="0">t</tspan><tspan class="cls-157"><tspan x="-91.21" y="20">- </tspan><tspan class="cls-189" x="-82.04" y="20">P</tspan><tspan class="cls-190" x="-74.09" y="20">u</tspan><tspan class="cls-191" x="-66.85" y="20">l</tspan><tspan class="cls-192" x="-64.3" y="20">l</tspan><tspan x="-61.78" y="20">: </tspan><tspan class="cls-193" x="-55.81" y="20">W</tspan><tspan class="cls-194" x="-46" y="20">e</tspan><tspan class="cls-195" x="-39.02" y="20">b</tspan><tspan class="cls-196" x="-31.6" y="20">R</tspan><tspan class="cls-197" x="-23.3" y="20">T</tspan><tspan class="cls-198" x="-16.14" y="20">C</tspan><tspan class="cls-166" x="-8.03" y="20">, </tspan><tspan class="cls-196" x="-2.12" y="20">R</tspan><tspan class="cls-199" x="6.19" y="20">T</tspan><tspan class="cls-200" x="13.49" y="20">M</tspan><tspan class="cls-201" x="23.44" y="20">P</tspan><tspan class="cls-166" x="29.81" y="20">, </tspan><tspan class="cls-202" x="35.72" y="20">S</tspan><tspan class="cls-196" x="43.47" y="20">R</tspan><tspan class="cls-203" x="51.77" y="20">T</tspan><tspan class="cls-166" x="57.82" y="20">, </tspan><tspan class="cls-200" x="63.74" y="20">M</tspan><tspan class="cls-204" x="73.68" y="20">P</tspan><tspan class="cls-205" x="81.75" y="20">E</tspan><tspan class="cls-206" x="89.22" y="20">G</tspan><tspan class="cls-207" x="97.77" y="20">-</tspan><tspan class="cls-208" x="102.94" y="20">2 </tspan><tspan class="cls-209" x="113.23" y="20">T</tspan><tspan class="cls-163" x="120.56" y="20">S</tspan><tspan x="-18.96" y="35">- </tspan><tspan class="cls-189" x="-9.8" y="35">P</tspan><tspan class="cls-210" x="-1.85" y="35">us</tspan><tspan class="cls-211" x="11.45" y="35">h</tspan><tspan class="cls-212" x="18.71" y="35">: </tspan><tspan class="cls-213" x="24.68" y="35">R</tspan><tspan class="cls-209" x="32.99" y="35">T</tspan><tspan class="cls-202" x="40.31" y="35">S</tspan><tspan class="cls-163" x="48.06" y="35">P</tspan></tspan></text><path d="M508.1,201.08a.74.74,0,0,1-.75-.75v-5.22H241.68a.75.75,0,0,1-.75-.75v-6a.75.75,0,0,1,.75-.75H507.35v-5.23a.74.74,0,0,1,.37-.64.76.76,0,0,1,.38-.11.7.7,0,0,1,.37.11l15.55,9a.76.76,0,0,1,0,1.3l-15.55,9A.69.69,0,0,1,508.1,201.08Z"/><path class="cls-88" d="M508.1,182.39l15.54,9-15.54,9v-6H241.68v-6H508.1v-6m0-1.5a1.43,1.43,0,0,0-.75.2,1.48,1.48,0,0,0-.75,1.3v4.47H241.68a1.5,1.5,0,0,0-1.5,1.5v6a1.5,1.5,0,0,0,1.5,1.5H506.6v4.47a1.48,1.48,0,0,0,.75,1.3,1.51,1.51,0,0,0,1.5,0l15.54-9a1.5,1.5,0,0,0,0-2.6l-15.54-9a1.43,1.43,0,0,0-.75-.2Z"/><path d="M508.1,262.11a.86.86,0,0,1-.38-.1.77.77,0,0,1-.37-.65v-5.23H241.68a.74.74,0,0,1-.75-.75v-6a.75.75,0,0,1,.75-.75H507.35v-5.22a.74.74,0,0,1,.75-.75.69.69,0,0,1,.37.1l15.55,9a.76.76,0,0,1,.37.65.74.74,0,0,1-.37.65l-15.55,9A.79.79,0,0,1,508.1,262.11Z"/><path class="cls-88" d="M508.1,243.41l15.54,9-15.54,9v-6H241.68v-6H508.1v-6m0-1.5a1.43,1.43,0,0,0-.75.2,1.49,1.49,0,0,0-.75,1.3v4.47H241.68a1.5,1.5,0,0,0-1.5,1.5v6a1.5,1.5,0,0,0,1.5,1.5H506.6v4.48a1.5,1.5,0,0,0,.75,1.3,1.51,1.51,0,0,0,1.5,0l15.54-9a1.5,1.5,0,0,0,0-2.6l-15.54-9a1.43,1.43,0,0,0-.75-.2Z"/><path d="M1113.18,323.54a.72.72,0,0,1-.37-.11l-15.54-9a.73.73,0,0,1-.38-.65.74.74,0,0,1,.38-.65l15.54-9a.71.71,0,0,1,.37-.1.74.74,0,0,1,.75.75v5.22h17.84V256.34h-17.84v5.22a.74.74,0,0,1-.75.75.71.71,0,0,1-.37-.1l-15.54-9a.75.75,0,0,1,0-1.3l15.54-9a.82.82,0,0,1,.37-.1.86.86,0,0,1,.38.1.77.77,0,0,1,.37.65v5.23h17.84V194.91h-17.84v5.22a.74.74,0,0,1-.75.75.71.71,0,0,1-.37-.1l-15.54-9a.74.74,0,0,1,0-1.29l15.54-9a.82.82,0,0,1,.37-.1.86.86,0,0,1,.38.1.76.76,0,0,1,.37.65v5.23h21.59a3.75,3.75,0,0,1,3.75,3.75v57.68h194.19V191.16a3.75,3.75,0,0,1,3.75-3.75h21.54v-5.23a.76.76,0,0,1,.37-.65.86.86,0,0,1,.38-.1.79.79,0,0,1,.37.1l15.55,9a.74.74,0,0,1,.37.65.76.76,0,0,1-.37.65l-15.55,9a.69.69,0,0,1-.37.1.74.74,0,0,1-.75-.75v-5.22H1341v53.93h17.79v-5.23a.77.77,0,0,1,.37-.65.86.86,0,0,1,.38-.1.79.79,0,0,1,.37.1l15.55,9a.76.76,0,0,1,0,1.3l-15.55,9a.69.69,0,0,1-.37.1.74.74,0,0,1-.75-.75v-5.22H1341v53.72h17.79v-5.22a.74.74,0,0,1,.75-.75.69.69,0,0,1,.37.1l15.55,9a.76.76,0,0,1,0,1.3l-15.55,9a.7.7,0,0,1-.37.11.76.76,0,0,1-.38-.11.74.74,0,0,1-.37-.64v-5.23h-21.54a3.75,3.75,0,0,1-3.75-3.75V256.34H1139.27v57.47a3.75,3.75,0,0,1-3.75,3.75h-21.59v5.23a.74.74,0,0,1-.37.64A.76.76,0,0,1,1113.18,323.54Z"/><path class="cls-88" d="M1359.5,182.18l15.54,9-15.54,9v-6h-19.29v55.43h19.29v-6l15.54,9-15.54,9v-6h-19.29v55.22h19.29v-6l15.54,9-15.54,9v-6h-22.29a3,3,0,0,1-3-3V255.59H1138.52v58.22a3,3,0,0,1-3,3h-22.34v6l-15.54-9,15.54-9v6h19.34V255.59h-19.34v6l-15.54-9,15.54-9v6h19.34V194.16h-19.34v6l-15.54-9,15.54-9v6h22.34a3,3,0,0,1,3,3v58.43h195.69V191.16a3,3,0,0,1,3-3h22.29v-6m-246.32-1.5a1.56,1.56,0,0,0-.75.2l-15.54,9a1.49,1.49,0,0,0,0,2.59l15.54,9a1.56,1.56,0,0,0,.75.2,1.53,1.53,0,0,0,.75-.2,1.49,1.49,0,0,0,.75-1.3v-4.47H1131v52.43h-16.34v-4.48a1.47,1.47,0,0,0-.75-1.29,1.44,1.44,0,0,0-.75-.21,1.47,1.47,0,0,0-.75.21l-15.54,9a1.5,1.5,0,0,0,0,2.6l15.54,9a1.46,1.46,0,0,0,.75.2,1.43,1.43,0,0,0,.75-.2,1.49,1.49,0,0,0,.75-1.3v-4.47H1131v52.22h-16.34v-4.47a1.48,1.48,0,0,0-.75-1.3,1.43,1.43,0,0,0-.75-.2,1.46,1.46,0,0,0-.75.2l-15.54,9a1.5,1.5,0,0,0,0,2.6l15.54,9a1.47,1.47,0,0,0,.75.21,1.44,1.44,0,0,0,.75-.21,1.47,1.47,0,0,0,.75-1.29v-4.48h20.84a4.51,4.51,0,0,0,4.5-4.5V257.09h192.69v56.72a4.51,4.51,0,0,0,4.5,4.5H1358v4.48a1.47,1.47,0,0,0,.75,1.29,1.44,1.44,0,0,0,1.5,0l15.54-9a1.5,1.5,0,0,0,0-2.6l-15.54-9a1.51,1.51,0,0,0-1.5,0,1.48,1.48,0,0,0-.75,1.3v4.47h-16.29V257.09H1358v4.47a1.49,1.49,0,0,0,.75,1.3,1.51,1.51,0,0,0,1.5,0l15.54-9a1.5,1.5,0,0,0,0-2.6l-15.54-9a1.44,1.44,0,0,0-1.5,0,1.47,1.47,0,0,0-.75,1.29v4.48h-16.29V195.66H1358v4.47a1.49,1.49,0,0,0,.75,1.3,1.51,1.51,0,0,0,1.5,0l15.54-9a1.5,1.5,0,0,0,0-2.6l-15.54-9a1.51,1.51,0,0,0-1.5,0,1.5,1.5,0,0,0-.75,1.3v4.48h-20.79a4.5,4.5,0,0,0-4.5,4.5v56.93H1140V191.16a4.5,4.5,0,0,0-4.5-4.5h-20.84v-4.48a1.5,1.5,0,0,0-.75-1.3,1.53,1.53,0,0,0-.75-.2Z"/><path d="M934.1,323.54a.76.76,0,0,1-.38-.11.74.74,0,0,1-.37-.64v-5.23H911.49a3.75,3.75,0,0,1-3.75-3.75V256.34H687.93v5.22a.74.74,0,0,1-.75.75.71.71,0,0,1-.37-.1l-15.54-9a.75.75,0,0,1,0-1.3l15.54-9a.82.82,0,0,1,.37-.1.86.86,0,0,1,.38.1.77.77,0,0,1,.37.65v5.23h18.12V194.91H687.93v5.22a.74.74,0,0,1-.75.75.71.71,0,0,1-.37-.1l-15.54-9a.74.74,0,0,1,0-1.29l15.54-9a.82.82,0,0,1,.37-.1.86.86,0,0,1,.38.1.76.76,0,0,1,.37.65v5.23H709.8a3.76,3.76,0,0,1,3.75,3.75v57.68H907.74V191.16a3.75,3.75,0,0,1,3.75-3.75h21.86v-5.23a.76.76,0,0,1,.37-.65.86.86,0,0,1,.38-.1.79.79,0,0,1,.37.1l15.55,9a.74.74,0,0,1,.37.65.76.76,0,0,1-.37.65l-15.55,9a.69.69,0,0,1-.37.1.74.74,0,0,1-.75-.75v-5.22H915.24v53.93h18.11v-5.23a.77.77,0,0,1,.37-.65.86.86,0,0,1,.38-.1.79.79,0,0,1,.37.1l15.55,9a.76.76,0,0,1,0,1.3l-15.55,9a.69.69,0,0,1-.37.1.74.74,0,0,1-.75-.75v-5.22H915.24v53.72h18.11v-5.22a.74.74,0,0,1,.75-.75.69.69,0,0,1,.37.1l15.55,9a.76.76,0,0,1,0,1.3l-15.55,9A.7.7,0,0,1,934.1,323.54Z"/><path class="cls-88" d="M934.1,182.18l15.54,9-15.54,9v-6H914.49v55.43H934.1v-6l15.54,9-15.54,9v-6H914.49v55.22H934.1v-6l15.54,9-15.54,9v-6H911.49a3,3,0,0,1-3-3V255.59H687.18v6l-15.54-9,15.54-9v6H706.8V194.16H687.18v6l-15.54-9,15.54-9v6H709.8a3,3,0,0,1,3,3v58.43H908.49V191.16a3,3,0,0,1,3-3H934.1v-6m-246.92-1.5a1.56,1.56,0,0,0-.75.2l-15.54,9a1.49,1.49,0,0,0,0,2.59l15.54,9a1.56,1.56,0,0,0,.75.2,1.53,1.53,0,0,0,.75-.2,1.49,1.49,0,0,0,.75-1.3v-4.47H705.3v52.43H688.68v-4.48a1.47,1.47,0,0,0-.75-1.29,1.44,1.44,0,0,0-.75-.21,1.47,1.47,0,0,0-.75.21l-15.54,9a1.5,1.5,0,0,0,0,2.6l15.54,9a1.46,1.46,0,0,0,.75.2,1.43,1.43,0,0,0,.75-.2,1.49,1.49,0,0,0,.75-1.3v-4.47H907v56.72a4.51,4.51,0,0,0,4.5,4.5H932.6v4.48a1.47,1.47,0,0,0,.75,1.29,1.44,1.44,0,0,0,1.5,0l15.54-9a1.5,1.5,0,0,0,0-2.6l-15.54-9a1.51,1.51,0,0,0-1.5,0,1.48,1.48,0,0,0-.75,1.3v4.47H916V257.09H932.6v4.47a1.49,1.49,0,0,0,.75,1.3,1.51,1.51,0,0,0,1.5,0l15.54-9a1.5,1.5,0,0,0,0-2.6l-15.54-9a1.44,1.44,0,0,0-1.5,0,1.47,1.47,0,0,0-.75,1.29v4.48H916V195.66H932.6v4.47a1.49,1.49,0,0,0,.75,1.3,1.51,1.51,0,0,0,1.5,0l15.54-9a1.5,1.5,0,0,0,0-2.6l-15.54-9a1.51,1.51,0,0,0-1.5,0,1.5,1.5,0,0,0-.75,1.3v4.48H911.49a4.5,4.5,0,0,0-4.5,4.5v56.93H714.3V191.16a4.5,4.5,0,0,0-4.5-4.5H688.68v-4.48a1.5,1.5,0,0,0-.75-1.3,1.53,1.53,0,0,0-.75-.2Z"/><rect class="cls-65" x="91.8" y="166.28" width="159.75" height="49.75"/><path d="M251.43,166.41v49.5H91.93v-49.5h159.5m.25-.25h-160v50h160v-50Z"/><text class="cls-214" transform="translate(109.07 199.15)">O<tspan class="cls-215" x="12.77" y="0">v</tspan><tspan class="cls-216" x="22.76" y="0">e</tspan><tspan class="cls-217" x="33.12" y="0">n</tspan><tspan class="cls-218" x="44.28" y="0">L</tspan><tspan class="cls-219" x="54.9" y="0">i</tspan><tspan class="cls-215" x="59.24" y="0">v</tspan><tspan class="cls-220" x="69.22" y="0">e</tspan><tspan class="cls-221" x="79.54" y="0">K</tspan><tspan class="cls-222" x="90.93" y="0">i</tspan><tspan class="cls-223" x="95.4" y="0">t</tspan><tspan class="cls-224" x="102.8" y="0">,</tspan><tspan class="cls-225" x="107.12" y="0"> </tspan><tspan class="cls-226" x="111.58" y="-4.98">..</tspan><tspan class="cls-225" x="120.61" y="-4.98">.</tspan></text><rect class="cls-35" x="30.68" y="166.16" width="60" height="50"/><text class="cls-227" transform="translate(36.3 195.7)">M<tspan class="cls-228" x="12.75" y="0">o</tspan><tspan class="cls-229" x="22.03" y="0">bi</tspan><tspan class="cls-230" x="35.64" y="0">l</tspan><tspan class="cls-231" x="39.68" y="0">e</tspan></text><rect class="cls-65" x="91.8" y="227.51" width="159.75" height="49.75"/><path d="M251.43,227.63v49.5H91.93v-49.5h159.5m.25-.25h-160v50h160v-50Z"/><text class="cls-232" transform="translate(101.33 260.37)">O<tspan class="cls-233" x="12.55" y="0">B</tspan><tspan class="cls-234" x="25.21" y="0">S</tspan><tspan class="cls-224" x="36.54" y="0">,</tspan><tspan class="cls-225" x="40.85" y="0"> </tspan><tspan class="cls-143" x="45.32" y="0">W</tspan><tspan class="cls-235" x="59.8" y="0">e</tspan><tspan class="cls-236" x="70.15" y="0">b</tspan><tspan class="cls-237" x="81.24" y="0">c</tspan><tspan class="cls-238" x="91.7" y="0">a</tspan><tspan class="cls-239" x="101.88" y="0">m</tspan><tspan class="cls-224" x="118.29" y="0">,</tspan><tspan class="cls-225" x="122.61" y="0"> </tspan><tspan class="cls-226" x="127.07" y="-4.98">..</tspan><tspan class="cls-225" x="136.1" y="-4.98">.</tspan></text><rect class="cls-35" x="30.68" y="227.38" width="60" height="50"/><text class="cls-240" transform="translate(50.01 256.93)">P<tspan class="cls-231" x="10.54" y="0">C</tspan></text><text class="cls-241" transform="translate(763.15 219.37) scale(0.98 1)">O<tspan class="cls-242" x="9.61" y="0">V</tspan><tspan class="cls-243" x="19.59" y="0">T</tspan><tspan class="cls-244" x="28.19" y="0">* </tspan><tspan class="cls-245" x="38.15" y="0">o</tspan><tspan class="cls-246" x="45.98" y="0">v</tspan><tspan class="cls-247" x="53.47" y="0">e</tspan><tspan class="cls-248" x="61.28" y="0">r </tspan><tspan class="cls-249" x="69.77" y="0">S</tspan><tspan class="cls-250" x="78.69" y="0">R</tspan><tspan class="cls-251" x="88.26" y="0">T</tspan></text><rect class="cls-50" x="730.64" y="227.59" width="160" height="50"/><text class="cls-252" transform="translate(772.87 248.32)">M<tspan class="cls-253" x="13.53" y="0">a</tspan><tspan class="cls-254" x="22.65" y="0">t</tspan><tspan class="cls-255" x="28.57" y="0">c</tspan><tspan class="cls-49" x="37.72" y="0">h </tspan><tspan class="cls-256" x="52.29" y="0">b</tspan><tspan class="cls-49" x="62.04" y="0">y </tspan><tspan class="cls-257"><tspan x="-25.46" y="19.98">D</tspan><tspan class="cls-258" x="-13.48" y="19.98">o</tspan><tspan class="cls-259" x="-3.58" y="19.98">m</tspan><tspan class="cls-260" x="11.99" y="19.98">ai</tspan><tspan class="cls-49" x="25.32" y="19.98">n </tspan><tspan class="cls-261" x="39.92" y="19.98">P</tspan><tspan class="cls-262" x="51.06" y="19.98">a</tspan><tspan class="cls-263" x="60.55" y="19.98">t</tspan><tspan class="cls-264" x="67.67" y="19.98">t</tspan><tspan class="cls-265" x="74.21" y="19.98">e</tspan><tspan class="cls-266" x="83.85" y="19.98">r</tspan><tspan class="cls-49" x="90.45" y="19.98">n</tspan></tspan></text><text class="cls-267" transform="translate(1212.38 295.38) scale(0.98 1)">O<tspan class="cls-268" x="10.18" y="0">u</tspan><tspan class="cls-269" x="19.11" y="0">t</tspan><tspan class="cls-188" x="25.07" y="0">p</tspan><tspan class="cls-149" x="33.95" y="0">u</tspan><tspan class="cls-270" x="42.89" y="0">t</tspan><tspan class="cls-157"><tspan x="-70.03" y="20">- </tspan><tspan class="cls-271" x="-60.87" y="20">L</tspan><tspan class="cls-272" x="-54.05" y="20">o</tspan><tspan x="-47.24" y="20">w </tspan><tspan class="cls-273" x="-34.19" y="20">L</tspan><tspan class="cls-162" x="-27.11" y="20">a</tspan><tspan class="cls-274" x="-20.5" y="20">t</tspan><tspan class="cls-275" x="-16.23" y="20">e</tspan><tspan class="cls-160" x="-9.45" y="20">nc</tspan><tspan class="cls-276" x="4.56" y="20">y</tspan><tspan x="11.2" y="20">: </tspan><tspan class="cls-193" x="17.16" y="20">W</tspan><tspan class="cls-194" x="26.98" y="20">e</tspan><tspan class="cls-195" x="33.96" y="20">b</tspan><tspan class="cls-196" x="41.37" y="20">R</tspan><tspan class="cls-197" x="49.68" y="20">T</tspan><tspan class="cls-277" x="56.84" y="20">C</tspan><tspan class="cls-166" x="64.94" y="20">, </tspan><tspan class="cls-278" x="70.85" y="20">LL</tspan><tspan class="cls-279" x="85.12" y="20">D</tspan><tspan class="cls-280" x="93.68" y="20">A</tspan><tspan class="cls-202" x="102.24" y="20">S</tspan><tspan class="cls-163" x="109.98" y="20">H</tspan><tspan x="-55.21" y="36">- </tspan><tspan class="cls-281" x="-46.04" y="36">L</tspan><tspan class="cls-282" x="-39.25" y="36">e</tspan><tspan class="cls-283" x="-32.37" y="36">g</tspan><tspan class="cls-284" x="-25.14" y="36">a</tspan><tspan class="cls-285" x="-18.47" y="36">c</tspan><tspan class="cls-286" x="-11.81" y="36">y</tspan><tspan x="-5.18" y="36">: </tspan><tspan class="cls-287" x="0.79" y="36">M</tspan><tspan class="cls-288" x="10.73" y="36">P</tspan><tspan class="cls-289" x="18.8" y="36">E</tspan><tspan class="cls-206" x="26.27" y="36">G</tspan><tspan class="cls-290" x="34.82" y="36">-</tspan><tspan class="cls-279" x="40.64" y="36">D</tspan><tspan class="cls-280" x="49.2" y="36">A</tspan><tspan class="cls-202" x="57.76" y="36">S</tspan><tspan class="cls-291" x="65.51" y="36">H</tspan><tspan class="cls-292" x="74.3" y="36">, </tspan><tspan class="cls-287" x="80.22" y="36">H</tspan><tspan class="cls-293" x="89.12" y="36">L</tspan><tspan class="cls-163" x="96.35" y="36">S</tspan></tspan></text><rect class="cls-50" x="1156.36" y="227.59" width="160" height="50"/><text class="cls-294" transform="translate(1188.9 257.65)">V<tspan class="cls-260" x="11.5" y="0">i</tspan><tspan class="cls-295" x="15.38" y="0">r</tspan><tspan class="cls-296" x="22.49" y="0">t</tspan><tspan class="cls-297" x="29.15" y="0">u</tspan><tspan class="cls-298" x="39.53" y="0">a</tspan><tspan class="cls-56" x="48.99" y="0">l </tspan><tspan class="cls-299" x="57.05" y="0">H</tspan><tspan class="cls-262" x="69.44" y="0">o</tspan><tspan class="cls-300" x="79.33" y="0">s</tspan><tspan class="cls-49" x="88.25" y="0">t</tspan></text></g></g></svg>