<svg xmlns="http://www.w3.org/2000/svg" viewBox="0 0 1560 400"><defs><style>.cls-1,.cls-146,.cls-4{fill:#333;}.cls-2{fill:#ffc10e;}.cls-3{fill:#f58a1f;}.cls-229,.cls-242,.cls-4{font-size:16px;}.cls-146,.cls-226,.cls-246,.cls-247,.cls-248,.cls-249,.cls-25,.cls-250,.cls-253,.cls-4,.cls-47,.cls-48,.cls-49,.cls-50,.cls-56,.cls-59,.cls-60,.cls-65{font-family:Rubik-Light, Rubik;font-weight:300;}.cls-4{letter-spacing:-0.03em;}.cls-5{letter-spacing:-0.03em;}.cls-6{letter-spacing:-0.02em;}.cls-7{letter-spacing:-0.03em;}.cls-8{letter-spacing:-0.02em;}.cls-9{letter-spacing:-0.03em;}.cls-10{letter-spacing:-0.03em;}.cls-11{letter-spacing:-0.02em;}.cls-12{letter-spacing:-0.02em;}.cls-13{letter-spacing:-0.01em;}.cls-14{letter-spacing:-0.02em;}.cls-15{letter-spacing:-0.02em;}.cls-16{letter-spacing:-0.03em;}.cls-17{letter-spacing:-0.03em;}.cls-18{letter-spacing:-0.03em;}.cls-19{letter-spacing:-0.03em;}.cls-20{letter-spacing:-0.02em;}.cls-21{fill:#4579bd;}.cls-22{font-size:20px;letter-spacing:-0.02em;}.cls-124,.cls-22,.cls-87{fill:#fff;}.cls-22,.cls-229,.cls-242,.cls-74,.cls-82,.cls-87{font-family:Rubik-Medium, Rubik;}.cls-133,.cls-189,.cls-22,.cls-229,.cls-242,.cls-268,.cls-74,.cls-82,.cls-87{font-weight:500;}.cls-23{letter-spacing:-0.02em;}.cls-24{letter-spacing:-0.02em;}.cls-25{letter-spacing:-0.02em;}.cls-26{letter-spacing:-0.01em;}.cls-27{letter-spacing:-0.02em;}.cls-28{letter-spacing:-0.02em;}.cls-29{letter-spacing:-0.02em;}.cls-30{letter-spacing:-0.02em;}.cls-31,.cls-50{letter-spacing:-0.01em;}.cls-32{letter-spacing:0.01em;}.cls-33{letter-spacing:-0.02em;}.cls-34{letter-spacing:-0.02em;}.cls-35{letter-spacing:-0.02em;}.cls-36{letter-spacing:-0.03em;}.cls-37{letter-spacing:-0.02em;}.cls-38{letter-spacing:-0.01em;}.cls-39{letter-spacing:-0.02em;}.cls-40{letter-spacing:-0.03em;}.cls-41{letter-spacing:-0.01em;}.cls-42{letter-spacing:-0.02em;}.cls-43{letter-spacing:-0.01em;}.cls-44{letter-spacing:-0.02em;}.cls-45{letter-spacing:-0.02em;}.cls-46{letter-spacing:-0.02em;}.cls-47{letter-spacing:-0.02em;}.cls-48{letter-spacing:-0.01em;}.cls-49{letter-spacing:-0.01em;}.cls-51{letter-spacing:0.01em;}.cls-52{letter-spacing:-0.02em;}.cls-53{letter-spacing:-0.01em;}.cls-54,.cls-65{letter-spacing:-0.02em;}.cls-55{letter-spacing:-0.02em;}.cls-56{letter-spacing:-0.02em;}.cls-57{letter-spacing:-0.01em;}.cls-58{letter-spacing:-0.01em;}.cls-59{letter-spacing:-0.02em;}.cls-60{letter-spacing:-0.02em;}.cls-61{letter-spacing:-0.02em;}.cls-62{letter-spacing:-0.02em;}.cls-63{letter-spacing:-0.02em;}.cls-64{letter-spacing:-0.03em;}.cls-66{letter-spacing:-0.02em;}.cls-67{letter-spacing:-0.01em;}.cls-68{letter-spacing:-0.02em;}.cls-69{letter-spacing:-0.01em;}.cls-70{letter-spacing:-0.02em;}.cls-71{letter-spacing:-0.02em;}.cls-72{letter-spacing:-0.01em;}.cls-73{fill:#666;}.cls-253,.cls-283,.cls-74,.cls-82,.cls-87{font-size:18px;}.cls-101,.cls-74,.cls-82{fill:#ccc;}.cls-74,.cls-91{letter-spacing:-0.03em;}.cls-75{letter-spacing:-0.02em;}.cls-76{letter-spacing:-0.02em;}.cls-77{letter-spacing:-0.02em;}.cls-78{letter-spacing:-0.01em;}.cls-258,.cls-79{letter-spacing:-0.02em;}.cls-80{letter-spacing:-0.02em;}.cls-81{letter-spacing:-0.02em;}.cls-82{letter-spacing:-0.02em;}.cls-83{letter-spacing:-0.02em;}.cls-84{letter-spacing:-0.04em;}.cls-85{letter-spacing:-0.04em;}.cls-86{letter-spacing:-0.02em;}.cls-289,.cls-87{letter-spacing:-0.01em;}.cls-88{letter-spacing:-0.04em;}.cls-89{letter-spacing:-0.02em;}.cls-90{letter-spacing:-0.02em;}.cls-92{letter-spacing:-0.02em;}.cls-93{letter-spacing:-0.02em;}.cls-94{letter-spacing:-0.02em;}.cls-95{letter-spacing:-0.03em;}.cls-96{letter-spacing:-0.03em;}.cls-97{letter-spacing:-0.02em;}.cls-98{letter-spacing:-0.02em;}.cls-99{letter-spacing:-0.02em;}.cls-100{letter-spacing:-0.02em;}.cls-102,.cls-111,.cls-119,.cls-125,.cls-184,.cls-216,.cls-234{font-size:19px;}.cls-102,.cls-111,.cls-119,.cls-125,.cls-152,.cls-153,.cls-154,.cls-156,.cls-157,.cls-158,.cls-159,.cls-160,.cls-161,.cls-162,.cls-163,.cls-164,.cls-166,.cls-167,.cls-168,.cls-169,.cls-170,.cls-171,.cls-172,.cls-177,.cls-178,.cls-179,.cls-180,.cls-181,.cls-182,.cls-183,.cls-184,.cls-196,.cls-197,.cls-198,.cls-199,.cls-200,.cls-201,.cls-202,.cls-203,.cls-204,.cls-205,.cls-206,.cls-207,.cls-208,.cls-209,.cls-210,.cls-211,.cls-215,.cls-216,.cls-234,.cls-243,.cls-258,.cls-280,.cls-281,.cls-282,.cls-283{font-family:Rubik-Regular, Rubik;}.cls-102,.cls-123{letter-spacing:-0.02em;}.cls-103{letter-spacing:-0.03em;}.cls-104{letter-spacing:-0.04em;}.cls-105{letter-spacing:-0.04em;}.cls-106{letter-spacing:-0.02em;}.cls-107{letter-spacing:-0.02em;}.cls-108{letter-spacing:-0.01em;}.cls-109{letter-spacing:-0.02em;}.cls-110{letter-spacing:-0.02em;}.cls-111{letter-spacing:-0.02em;}.cls-112{letter-spacing:-0.02em;}.cls-113{letter-spacing:-0.03em;}.cls-114{letter-spacing:-0.01em;}.cls-115{letter-spacing:-0.02em;}.cls-116{letter-spacing:-0.03em;}.cls-117{letter-spacing:-0.04em;}.cls-118{letter-spacing:-0.04em;}.cls-119{letter-spacing:-0.01em;}.cls-120{letter-spacing:-0.04em;}.cls-121{letter-spacing:-0.02em;}.cls-122{letter-spacing:-0.03em;}.cls-125{letter-spacing:-0.02em;}.cls-126{letter-spacing:-0.01em;}.cls-127{letter-spacing:-0.03em;}.cls-128{letter-spacing:-0.03em;}.cls-129{letter-spacing:-0.03em;}.cls-130{letter-spacing:-0.01em;}.cls-131{letter-spacing:0.01em;}.cls-132{letter-spacing:-0.04em;}.cls-133,.cls-189,.cls-243,.cls-268{font-size:15px;}.cls-133,.cls-189,.cls-268{font-family:Rubik-MediumItalic, Rubik;font-style:italic;}.cls-133{letter-spacing:-0.03em;}.cls-134{letter-spacing:-0.03em;}.cls-135{letter-spacing:-0.05em;}.cls-136{letter-spacing:-0.02em;}.cls-137{letter-spacing:-0.1em;}.cls-138{letter-spacing:-0.03em;}.cls-139{letter-spacing:-0.02em;}.cls-140{letter-spacing:-0.03em;}.cls-141{letter-spacing:-0.01em;}.cls-142{letter-spacing:-0.02em;}.cls-143{letter-spacing:-0.02em;}.cls-144{letter-spacing:-0.01em;}.cls-145{letter-spacing:-0.02em;}.cls-146{font-size:13px;font-style:normal;letter-spacing:-0.02em;}.cls-147{letter-spacing:-0.01em;}.cls-148,.cls-171{letter-spacing:-0.03em;}.cls-149{letter-spacing:-0.02em;}.cls-150{letter-spacing:-0.02em;}.cls-151{letter-spacing:-0.03em;}.cls-152,.cls-153,.cls-154,.cls-156,.cls-157,.cls-158,.cls-159,.cls-160,.cls-161,.cls-162,.cls-163,.cls-164,.cls-166,.cls-167,.cls-168,.cls-169,.cls-170,.cls-171,.cls-172,.cls-177,.cls-178,.cls-179,.cls-180,.cls-181,.cls-182,.cls-183,.cls-196,.cls-197,.cls-198,.cls-199,.cls-200,.cls-201,.cls-202,.cls-203,.cls-204,.cls-205,.cls-206,.cls-207,.cls-208,.cls-209,.cls-210,.cls-211,.cls-215,.cls-258,.cls-280,.cls-281,.cls-282{font-weight:400;}.cls-152,.cls-153,.cls-154,.cls-155,.cls-156,.cls-157,.cls-158,.cls-159,.cls-160,.cls-161,.cls-162,.cls-163,.cls-164,.cls-165,.cls-166,.cls-167,.cls-168,.cls-169,.cls-170,.cls-171,.cls-172,.cls-177,.cls-178,.cls-179,.cls-180,.cls-181,.cls-182,.cls-183,.cls-196,.cls-197,.cls-198,.cls-199,.cls-200,.cls-201,.cls-202,.cls-203,.cls-204,.cls-205,.cls-206,.cls-207,.cls-208,.cls-209,.cls-210,.cls-211,.cls-215,.cls-280,.cls-281,.cls-282{fill:#000;}.cls-153,.cls-279{letter-spacing:-0.02em;}.cls-154{letter-spacing:-0.04em;}.cls-156{letter-spacing:-0.02em;}.cls-157{letter-spacing:-0.01em;}.cls-158{letter-spacing:-0.03em;}.cls-159{letter-spacing:0em;}.cls-160{letter-spacing:-0.05em;}.cls-161{letter-spacing:-0.02em;}.cls-162{letter-spacing:-0.02em;}.cls-163{letter-spacing:-0.01em;}.cls-164{letter-spacing:-0.03em;}.cls-165{letter-spacing:-0.02em;}.cls-166{letter-spacing:-0.02em;}.cls-167{letter-spacing:-0.02em;}.cls-168{letter-spacing:-0.02em;}.cls-169{letter-spacing:-0.02em;}.cls-170{letter-spacing:-0.02em;}.cls-172{letter-spacing:-0.02em;}.cls-173{letter-spacing:-0.03em;}.cls-174{letter-spacing:-0.03em;}.cls-175{letter-spacing:-0.03em;}.cls-176{letter-spacing:-0.03em;}.cls-177{letter-spacing:-0.02em;}.cls-178{letter-spacing:-0.03em;}.cls-179{letter-spacing:-0.03em;}.cls-180{letter-spacing:0.02em;}.cls-181{letter-spacing:-0.04em;}.cls-182{letter-spacing:-0.02em;}.cls-183{letter-spacing:-0.02em;}.cls-184{letter-spacing:-0.03em;}.cls-185{letter-spacing:-0.03em;}.cls-186{letter-spacing:-0.02em;}.cls-187{letter-spacing:-0.01em;}.cls-188{letter-spacing:0.01em;}.cls-189{letter-spacing:-0.02em;}.cls-190{letter-spacing:-0.02em;}.cls-191,.cls-250{letter-spacing:-0.02em;}.cls-192{letter-spacing:-0.02em;}.cls-193{letter-spacing:-0.03em;}.cls-194{letter-spacing:-0.03em;}.cls-195{letter-spacing:-0.03em;}.cls-196{letter-spacing:-0.05em;}.cls-197{letter-spacing:-0.02em;}.cls-198{letter-spacing:-0.02em;}.cls-199{letter-spacing:-0.02em;}.cls-200{letter-spacing:-0.03em;}.cls-201{letter-spacing:-0.02em;}.cls-202{letter-spacing:-0.03em;}.cls-203{letter-spacing:-0.15em;}.cls-204{letter-spacing:-0.03em;}.cls-205{letter-spacing:-0.11em;}.cls-206{letter-spacing:-0.02em;}.cls-207{letter-spacing:-0.03em;}.cls-208{letter-spacing:-0.02em;}.cls-209{letter-spacing:-0.09em;}.cls-210,.cls-214{letter-spacing:-0.02em;}.cls-211{letter-spacing:-0.02em;}.cls-212{letter-spacing:-0.03em;}.cls-213{letter-spacing:-0.03em;}.cls-215{letter-spacing:-0.02em;}.cls-216{letter-spacing:0em;}.cls-217{letter-spacing:-0.03em;}.cls-218{letter-spacing:-0.01em;}.cls-219{letter-spacing:-0.02em;}.cls-220{letter-spacing:0em;}.cls-221{letter-spacing:-0.01em;}.cls-222{letter-spacing:-0.02em;}.cls-223{letter-spacing:0em;}.cls-224{letter-spacing:-0.01em;}.cls-225{letter-spacing:0em;}.cls-226,.cls-227{letter-spacing:-0.01em;}.cls-228{letter-spacing:-0.01em;}.cls-229{letter-spacing:-0.01em;}.cls-230{letter-spacing:-0.01em;}.cls-231{letter-spacing:-0.01em;}.cls-232{letter-spacing:-0.01em;}.cls-233{letter-spacing:-0.01em;}.cls-234{letter-spacing:-0.02em;}.cls-235{letter-spacing:0em;}.cls-236{letter-spacing:-0.03em;}.cls-237{letter-spacing:-0.02em;}.cls-238{letter-spacing:-0.01em;}.cls-239{letter-spacing:0em;}.cls-240{letter-spacing:-0.02em;}.cls-241{letter-spacing:-0.02em;}.cls-242{letter-spacing:0em;}.cls-243{letter-spacing:-0.04em;}.cls-244{letter-spacing:0.01em;}.cls-245{letter-spacing:-0.02em;}.cls-246{letter-spacing:-0.02em;}.cls-247{letter-spacing:-0.04em;}.cls-248{letter-spacing:-0.04em;}.cls-249,.cls-270{letter-spacing:-0.03em;}.cls-251{letter-spacing:-0.03em;}.cls-252{letter-spacing:-0.02em;}.cls-253{letter-spacing:-0.03em;}.cls-254{letter-spacing:-0.03em;}.cls-255{letter-spacing:-0.03em;}.cls-256{letter-spacing:-0.03em;}.cls-257{letter-spacing:-0.04em;}.cls-259{letter-spacing:-0.02em;}.cls-260{letter-spacing:-0.02em;}.cls-261{letter-spacing:-0.03em;}.cls-262{letter-spacing:-0.02em;}.cls-263{letter-spacing:-0.02em;}.cls-264{letter-spacing:0em;}.cls-265{letter-spacing:-0.03em;}.cls-266{letter-spacing:-0.02em;}.cls-267{letter-spacing:-0.01em;}.cls-268{letter-spacing:-0.02em;}.cls-269{letter-spacing:-0.03em;}.cls-271{letter-spacing:-0.02em;}.cls-272{letter-spacing:-0.03em;}.cls-273{letter-spacing:-0.02em;}.cls-274{letter-spacing:-0.02em;}.cls-275{letter-spacing:-0.03em;}.cls-276{letter-spacing:-0.02em;}.cls-277{letter-spacing:-0.02em;}.cls-278{letter-spacing:-0.02em;}.cls-280{letter-spacing:-0.01em;}.cls-281{letter-spacing:-0.03em;}.cls-282{letter-spacing:-0.01em;}.cls-283{letter-spacing:-0.02em;}.cls-284{letter-spacing:0.02em;}.cls-285{letter-spacing:-0.02em;}.cls-286{letter-spacing:-0.03em;}.cls-287{letter-spacing:-0.03em;}.cls-288{letter-spacing:-0.03em;}</style></defs><g id="Layer_2" data-name="Layer 2"><g id="Layer_1-2" data-name="Layer 1"><rect class="cls-1" width="1560" height="400"/><rect class="cls-2" x="269" y="160.63" width="1081" height="186"/><path class="cls-3" d="M1105.07,164.63v207h-164v-207h164m0-2h-164a2,2,0,0,0-2,2v207a2,2,0,0,0,2,2h164a2,2,0,0,0,2-2v-207a2,2,0,0,0-2-2Z"/><rect class="cls-3" x="942.07" y="350.43" width="162" height="20"/><text class="cls-4" transform="translate(952.97 366.02)">I<tspan class="cls-5" x="3.51" y="0">n</tspan><tspan class="cls-6" x="12.47" y="0">fi</tspan><tspan class="cls-7" x="20.01" y="0">n</tspan><tspan class="cls-8" x="28.98" y="0">i</tspan><tspan class="cls-9" x="32.29" y="0">t</tspan><tspan class="cls-10" x="37.52" y="0">e</tspan><tspan class="cls-11" x="45.83" y="0">l</tspan><tspan class="cls-12" x="49.03" y="0">y </tspan><tspan class="cls-13" x="61.03" y="0">E</tspan><tspan class="cls-14" x="70.41" y="0">x</tspan><tspan class="cls-15" x="78.31" y="0">p</tspan><tspan class="cls-16" x="87.32" y="0">a</tspan><tspan class="cls-17" x="95.46" y="0">nd</tspan><tspan class="cls-18" x="113.36" y="0">a</tspan><tspan class="cls-19" x="121.49" y="0">bl</tspan><tspan class="cls-20" x="133.54" y="0">e</tspan></text><polygon class="cls-21" points="1529.56 59.05 1477.06 23.64 1477.06 39.99 29.56 39.99 29.56 78.11 1477.06 78.11 1477.06 94.45 1529.56 59.05"/><text class="cls-22" transform="translate(435.86 65.43)">S<tspan class="cls-23" x="12.48" y="0">u</tspan><tspan class="cls-24" x="24.51" y="0">b</tspan><tspan class="cls-25" x="36.33" y="0">-</tspan><tspan class="cls-26" x="45.59" y="0">S</tspan><tspan class="cls-27" x="58.25" y="0">e</tspan><tspan class="cls-28" x="69.48" y="0">c</tspan><tspan class="cls-29" x="80.57" y="0">o</tspan><tspan class="cls-30" x="92.05" y="0">n</tspan><tspan class="cls-31" x="104.18" y="0">d </tspan><tspan class="cls-32" x="120.42" y="0">L</tspan><tspan class="cls-33" x="132.13" y="0">a</tspan><tspan class="cls-34" x="143.19" y="0">t</tspan><tspan class="cls-30" x="151.35" y="0">e</tspan><tspan class="cls-35" x="162.54" y="0">n</tspan><tspan class="cls-36" x="174.64" y="0">c</tspan><tspan class="cls-37" x="185.54" y="0">y </tspan><tspan class="cls-38" x="201" y="0">L</tspan><tspan class="cls-39" x="212.39" y="0">i</tspan><tspan class="cls-40" x="217.29" y="0">v</tspan><tspan class="cls-37" x="228.08" y="0">e </tspan><tspan class="cls-41" x="243.6" y="0">S</tspan><tspan class="cls-42" x="256.32" y="0">t</tspan><tspan class="cls-43" x="264.56" y="0">r</tspan><tspan class="cls-28" x="272.62" y="0">e</tspan><tspan class="cls-44" x="283.84" y="0">a</tspan><tspan class="cls-45" x="294.89" y="0">m</tspan><tspan class="cls-46" x="312.53" y="0">in</tspan><tspan class="cls-31" x="329.53" y="0">g </tspan><tspan class="cls-47" x="345.83" y="0">w</tspan><tspan class="cls-48" x="361.08" y="0">i</tspan><tspan class="cls-49" x="365.29" y="0">t</tspan><tspan class="cls-50" x="372.17" y="0">h</tspan><tspan class="cls-31" x="383.69" y="0"> </tspan><tspan class="cls-51" x="387.97" y="0">L</tspan><tspan class="cls-52" x="399.68" y="0">a</tspan><tspan class="cls-53" x="410.73" y="0">r</tspan><tspan class="cls-54" x="418.83" y="0">g</tspan><tspan class="cls-55" x="430.76" y="0">e</tspan><tspan class="cls-56" x="441.88" y="0">-</tspan><tspan class="cls-57" x="451.13" y="0">S</tspan><tspan class="cls-58" x="463.78" y="0">c</tspan><tspan class="cls-35" x="475.05" y="0">al</tspan><tspan class="cls-31" x="491.01" y="0">e </tspan><tspan class="cls-59" x="506.53" y="0">a</tspan><tspan class="cls-60" x="516.77" y="0">n</tspan><tspan class="cls-50" x="528.12" y="0">d </tspan><tspan class="cls-61" x="544.28" y="0">H</tspan><tspan class="cls-62" x="558.43" y="0">i</tspan><tspan class="cls-63" x="563.31" y="0">g</tspan><tspan class="cls-64" x="575.23" y="0">h</tspan><tspan class="cls-65" x="587.27" y="0">-</tspan><tspan class="cls-66" x="596.62" y="0">D</tspan><tspan class="cls-67" x="610.31" y="0">e</tspan><tspan class="cls-31" x="621.59" y="0">fi</tspan><tspan class="cls-68" x="633.55" y="0">n</tspan><tspan class="cls-69" x="645.63" y="0">i</tspan><tspan class="cls-70" x="650.63" y="0">t</tspan><tspan class="cls-62" x="658.86" y="0">i</tspan><tspan class="cls-71" x="663.75" y="0">o</tspan><tspan class="cls-72" x="675.23" y="0">n</tspan></text><rect class="cls-73" x="30.02" y="115.3" width="434" height="32" rx="16"/><text class="cls-74" transform="translate(190.93 137.27)">M<tspan class="cls-75" x="14.14" y="0">e</tspan><tspan class="cls-76" x="24.17" y="0">d</tspan><tspan class="cls-77" x="34.77" y="0">i</tspan><tspan class="cls-75" x="39.08" y="0">a </tspan><tspan class="cls-78" x="52.76" y="0">S</tspan><tspan class="cls-77" x="64.06" y="0">o</tspan><tspan class="cls-79" x="74.28" y="0">u</tspan><tspan class="cls-80" x="85.03" y="0">r</tspan><tspan class="cls-81" x="92.25" y="0">c</tspan><tspan class="cls-75" x="102.16" y="0">e</tspan></text><rect class="cls-73" x="1368.1" y="115.3" width="161" height="32" rx="16"/><text class="cls-82" transform="translate(1422.49 137.27)">P<tspan class="cls-83" x="11.46" y="0">l</tspan><tspan class="cls-84" x="15.83" y="0">a</tspan><tspan class="cls-85" x="25.38" y="0">y</tspan><tspan class="cls-86" x="35.03" y="0">e</tspan><tspan class="cls-20" x="45.03" y="0">r</tspan></text><rect class="cls-3" x="515.7" y="115.3" width="801" height="32" rx="16"/><text class="cls-87" transform="translate(841.76 136.97)">O<tspan class="cls-88" x="12.25" y="0">v</tspan><tspan class="cls-89" x="21.88" y="0">e</tspan><tspan class="cls-90" x="31.88" y="0">n</tspan><tspan class="cls-91" x="42.66" y="0">M</tspan><tspan class="cls-92" x="56.8" y="0">e</tspan><tspan class="cls-93" x="66.83" y="0">d</tspan><tspan class="cls-94" x="77.43" y="0">i</tspan><tspan class="cls-95" x="81.74" y="0">a</tspan><tspan class="cls-96" x="91.56" y="0">E</tspan><tspan class="cls-97" x="102.25" y="0">n</tspan><tspan class="cls-98" x="113.07" y="0">g</tspan><tspan class="cls-99" x="123.73" y="0">i</tspan><tspan class="cls-100" x="128.06" y="0">n</tspan><tspan class="cls-92" x="138.86" y="0">e</tspan></text><rect class="cls-101" x="1368.73" y="290.08" width="159.75" height="49.75"/><path d="M1528.35,290.2v49.5h-159.5V290.2h159.5m.25-.25h-160v50h160V290Z"/><text class="cls-102" transform="translate(1402.8 320.45)">P<tspan class="cls-103" x="11.78" y="0">l</tspan><tspan class="cls-104" x="15.92" y="0">a</tspan><tspan class="cls-105" x="25.67" y="0">y</tspan><tspan class="cls-106" x="35.45" y="0">e</tspan><tspan class="cls-107" x="45.62" y="0">r </tspan><tspan class="cls-108" x="56.74" y="0">A</tspan><tspan class="cls-109" x="69.2" y="0">p</tspan><tspan class="cls-110" x="80.06" y="0">p</tspan></text><rect class="cls-101" x="1368.73" y="228.85" width="159.75" height="49.75"/><path d="M1528.35,229v49.5h-159.5V229h159.5m.25-.25h-160v50h160v-50Z"/><text class="cls-111" transform="translate(1390.07 259.23)">H<tspan class="cls-112" x="13.21" y="0">T</tspan><tspan class="cls-113" x="23.85" y="0">M</tspan><tspan class="cls-114" x="38.33" y="0">L</tspan><tspan class="cls-107" x="48.82" y="0">5 </tspan><tspan class="cls-115" x="64" y="0">P</tspan><tspan class="cls-116" x="75.79" y="0">l</tspan><tspan class="cls-117" x="79.93" y="0">a</tspan><tspan class="cls-118" x="89.67" y="0">y</tspan><tspan class="cls-106" x="99.45" y="0">e</tspan><tspan class="cls-107" x="109.63" y="0">r</tspan></text><rect class="cls-101" x="1368.73" y="167.63" width="159.75" height="49.75"/><path d="M1528.35,167.75v49.5h-159.5v-49.5h159.5m.25-.25h-160v50h160v-50Z"/><text class="cls-119" transform="translate(1400.31 198)">O<tspan class="cls-120" x="12.58" y="0">v</tspan><tspan class="cls-121" x="22.38" y="0">e</tspan><tspan class="cls-122" x="32.55" y="0">n</tspan><tspan class="cls-123" x="43.52" y="0">P</tspan><tspan class="cls-103" x="55.3" y="0">l</tspan><tspan class="cls-104" x="59.44" y="0">a</tspan><tspan class="cls-105" x="69.19" y="0">y</tspan><tspan class="cls-106" x="78.97" y="0">e</tspan><tspan class="cls-107" x="89.14" y="0">r</tspan></text><rect class="cls-124" x="517.33" y="167.42" width="159.75" height="49.75"/><path d="M677,167.55v49.5H517.45v-49.5H677m.25-.25h-160v50h160v-50Z"/><text class="cls-125" transform="translate(542.03 197.8)">O<tspan class="cls-126" x="12.47" y="0">r</tspan><tspan class="cls-127" x="19.44" y="0">i</tspan><tspan class="cls-128" x="23.52" y="0">g</tspan><tspan class="cls-129" x="34.33" y="0">i</tspan><tspan class="cls-107" x="38.42" y="0">n </tspan><tspan class="cls-130" x="53.82" y="0">S</tspan><tspan class="cls-121" x="65.38" y="0">e</tspan><tspan class="cls-131" x="75.55" y="0">r</tspan><tspan class="cls-132" x="82.93" y="0">v</tspan><tspan class="cls-121" x="92.73" y="0">e</tspan><tspan class="cls-107" x="102.9" y="0">r</tspan></text><text class="cls-133" transform="translate(539.59 296.53) scale(0.98 1)">L<tspan class="cls-134" x="8.22" y="0">i</tspan><tspan class="cls-135" x="11.69" y="0">v</tspan><tspan class="cls-136" x="19.51" y="0">e </tspan><tspan class="cls-137" x="31.03" y="0">T</tspan><tspan class="cls-138" x="38.6" y="0">r</tspan><tspan class="cls-139" x="44.51" y="0">a</tspan><tspan class="cls-140" x="53.37" y="0">n</tspan><tspan class="cls-141" x="62.29" y="0">s</tspan><tspan class="cls-142" x="70.07" y="0">co</tspan><tspan class="cls-143" x="86.93" y="0">d</tspan><tspan class="cls-144" x="95.87" y="0">i</tspan><tspan class="cls-145" x="99.61" y="0">n</tspan><tspan class="cls-136" x="108.69" y="0">g</tspan><tspan class="cls-146"><tspan x="-40.08" y="20">- </tspan><tspan class="cls-147" x="-30.92" y="20">V</tspan><tspan class="cls-148" x="-22.8" y="20">i</tspan><tspan class="cls-149" x="-20.24" y="20">d</tspan><tspan class="cls-150" x="-13.01" y="20">e</tspan><tspan class="cls-151" x="-6.14" y="20">o</tspan><tspan x="0.76" y="20">: </tspan><tspan class="cls-152" x="6.73" y="20">V</tspan><tspan class="cls-153" x="14.98" y="20">P</tspan><tspan class="cls-154" x="23.08" y="20">8</tspan><tspan class="cls-155" x="30.81" y="20">, </tspan><tspan class="cls-156" x="36.72" y="20">H</tspan><tspan class="cls-157" x="45.74" y="20">.</tspan><tspan class="cls-158" x="48.9" y="20">2</tspan><tspan class="cls-159" x="56.14" y="20">6</tspan><tspan class="cls-160" x="64.04" y="20">4</tspan><tspan class="cls-155" x="71.41" y="20">,</tspan><tspan class="cls-152" x="74.23" y="20"> </tspan><tspan class="cls-161" x="77.15" y="20">P</tspan><tspan class="cls-162" x="85.22" y="20">a</tspan><tspan class="cls-163" x="92.07" y="20">s</tspan><tspan class="cls-164" x="98.55" y="20">s</tspan><tspan class="cls-165" x="104.75" y="20">-</tspan><tspan class="cls-166" x="110.81" y="20">t</tspan><tspan class="cls-167" x="115.67" y="20">h</tspan><tspan class="cls-168" x="123.27" y="20">r</tspan><tspan class="cls-169" x="127.97" y="20">o</tspan><tspan class="cls-170" x="135.12" y="20">u</tspan><tspan class="cls-171" x="142.64" y="20">g</tspan><tspan class="cls-172" x="150.06" y="20">h</tspan><tspan x="-38.43" y="35">- </tspan><tspan class="cls-173" x="-29.26" y="35">A</tspan><tspan class="cls-149" x="-21.21" y="35">u</tspan><tspan class="cls-174" x="-13.91" y="35">d</tspan><tspan class="cls-175" x="-6.72" y="35">i</tspan><tspan class="cls-176" x="-4.15" y="35">o</tspan><tspan x="2.75" y="35">: </tspan><tspan class="cls-177" x="8.71" y="35">O</tspan><tspan class="cls-170" x="17.27" y="35">p</tspan><tspan class="cls-178" x="24.71" y="35">u</tspan><tspan class="cls-179" x="32.2" y="35">s</tspan><tspan class="cls-155" x="38.45" y="35">, </tspan><tspan class="cls-180" x="44.37" y="35">A</tspan><tspan class="cls-158" x="53.34" y="35">A</tspan><tspan class="cls-181" x="61.65" y="35">C</tspan><tspan class="cls-155" x="69.75" y="35">,</tspan><tspan class="cls-152" x="72.57" y="35"> </tspan><tspan class="cls-161" x="75.49" y="35">P</tspan><tspan class="cls-162" x="83.56" y="35">a</tspan><tspan class="cls-163" x="90.41" y="35">s</tspan><tspan class="cls-164" x="96.9" y="35">s</tspan><tspan class="cls-165" x="103.09" y="35">-</tspan><tspan class="cls-166" x="109.16" y="35">t</tspan><tspan class="cls-167" x="114.01" y="35">h</tspan><tspan class="cls-168" x="121.61" y="35">r</tspan><tspan class="cls-182" x="126.31" y="35">o</tspan><tspan class="cls-183" x="133.47" y="35">u</tspan><tspan class="cls-171" x="140.99" y="35">g</tspan><tspan class="cls-152" x="148.41" y="35">h</tspan></tspan></text><rect class="cls-124" x="517.33" y="228.65" width="159.75" height="49.75"/><path d="M677,228.78v49.5H517.45v-49.5H677m.25-.25h-160v50h160v-50Z"/><text class="cls-125" transform="translate(542.03 259.03)">O<tspan class="cls-126" x="12.47" y="0">r</tspan><tspan class="cls-127" x="19.44" y="0">i</tspan><tspan class="cls-128" x="23.52" y="0">g</tspan><tspan class="cls-129" x="34.33" y="0">i</tspan><tspan class="cls-107" x="38.42" y="0">n </tspan><tspan class="cls-130" x="53.82" y="0">S</tspan><tspan class="cls-121" x="65.38" y="0">e</tspan><tspan class="cls-131" x="75.55" y="0">r</tspan><tspan class="cls-132" x="82.93" y="0">v</tspan><tspan class="cls-121" x="92.73" y="0">e</tspan><tspan class="cls-107" x="102.9" y="0">r</tspan></text><rect class="cls-124" x="943.33" y="290.08" width="159.75" height="49.75"/><path d="M1103,290.2v49.5H943.45V290.2H1103m.25-.25h-160v50h160V290Z"/><text class="cls-184" transform="translate(971.62 320.45)">E<tspan class="cls-185" x="10.86" y="0">dg</tspan><tspan class="cls-186" x="32.55" y="0">e </tspan><tspan class="cls-187" x="47.08" y="0">S</tspan><tspan class="cls-106" x="58.64" y="0">e</tspan><tspan class="cls-188" x="68.81" y="0">r</tspan><tspan class="cls-120" x="76.19" y="0">v</tspan><tspan class="cls-121" x="85.98" y="0">e</tspan><tspan class="cls-107" x="96.16" y="0">r</tspan></text><rect class="cls-124" x="943.33" y="228.85" width="159.75" height="49.75"/><path d="M1103,229v49.5H943.45V229H1103m.25-.25h-160v50h160v-50Z"/><text class="cls-184" transform="translate(971.4 259.23)">E<tspan class="cls-185" x="10.86" y="0">dg</tspan><tspan class="cls-186" x="32.55" y="0">e </tspan><tspan class="cls-187" x="47.08" y="0">S</tspan><tspan class="cls-106" x="58.64" y="0">e</tspan><tspan class="cls-188" x="68.81" y="0">r</tspan><tspan class="cls-120" x="76.19" y="0">v</tspan><tspan class="cls-121" x="85.98" y="0">e</tspan><tspan class="cls-107" x="96.16" y="0">r</tspan></text><rect class="cls-124" x="943.33" y="167.63" width="159.75" height="49.75"/><path d="M1103,167.75v49.5H943.45v-49.5H1103m.25-.25h-160v50h160v-50Z"/><text class="cls-184" transform="translate(971.4 198)">E<tspan class="cls-185" x="10.86" y="0">dg</tspan><tspan class="cls-186" x="32.55" y="0">e </tspan><tspan class="cls-187" x="47.08" y="0">S</tspan><tspan class="cls-106" x="58.64" y="0">e</tspan><tspan class="cls-188" x="68.81" y="0">r</tspan><tspan class="cls-120" x="76.19" y="0">v</tspan><tspan class="cls-121" x="85.98" y="0">e</tspan><tspan class="cls-107" x="96.16" y="0">r</tspan></text><text class="cls-189" transform="translate(366.03 210.13) scale(0.98 1)">I<tspan class="cls-190" x="4.21" y="0">n</tspan><tspan class="cls-191" x="13.28" y="0">p</tspan><tspan class="cls-138" x="22.16" y="0">u</tspan><tspan class="cls-191" x="31.1" y="0">t</tspan><tspan class="cls-146"><tspan x="-91.21" y="20">- </tspan><tspan class="cls-192" x="-82.04" y="20">P</tspan><tspan class="cls-193" x="-74.09" y="20">u</tspan><tspan class="cls-194" x="-66.85" y="20">l</tspan><tspan class="cls-195" x="-64.3" y="20">l</tspan><tspan x="-61.78" y="20">: </tspan><tspan class="cls-196" x="-55.81" y="20">W</tspan><tspan class="cls-197" x="-46" y="20">e</tspan><tspan class="cls-198" x="-39.02" y="20">b</tspan><tspan class="cls-199" x="-31.6" y="20">R</tspan><tspan class="cls-200" x="-23.3" y="20">T</tspan><tspan class="cls-181" x="-16.14" y="20">C</tspan><tspan class="cls-155" x="-8.03" y="20">, </tspan><tspan class="cls-199" x="-2.12" y="20">R</tspan><tspan class="cls-201" x="6.19" y="20">T</tspan><tspan class="cls-202" x="13.49" y="20">M</tspan><tspan class="cls-203" x="23.44" y="20">P</tspan><tspan class="cls-155" x="29.81" y="20">, </tspan><tspan class="cls-204" x="35.72" y="20">S</tspan><tspan class="cls-199" x="43.47" y="20">R</tspan><tspan class="cls-205" x="51.77" y="20">T</tspan><tspan class="cls-155" x="57.82" y="20">, </tspan><tspan class="cls-202" x="63.74" y="20">M</tspan><tspan class="cls-206" x="73.68" y="20">P</tspan><tspan class="cls-207" x="81.75" y="20">E</tspan><tspan class="cls-208" x="89.22" y="20">G</tspan><tspan class="cls-209" x="97.77" y="20">-</tspan><tspan class="cls-210" x="102.94" y="20">2 </tspan><tspan class="cls-211" x="113.23" y="20">T</tspan><tspan class="cls-152" x="120.56" y="20">S</tspan><tspan x="-18.96" y="35">- </tspan><tspan class="cls-192" x="-9.8" y="35">P</tspan><tspan class="cls-212" x="-1.85" y="35">us</tspan><tspan class="cls-213" x="11.45" y="35">h</tspan><tspan class="cls-214" x="18.71" y="35">: </tspan><tspan class="cls-215" x="24.68" y="35">R</tspan><tspan class="cls-211" x="32.99" y="35">T</tspan><tspan class="cls-204" x="40.31" y="35">S</tspan><tspan class="cls-152" x="48.06" y="35">P</tspan></tspan></text><path d="M507.66,202.23a.79.79,0,0,1-.37-.1.74.74,0,0,1-.38-.65v-5.23H241.24a.74.74,0,0,1-.75-.75v-6a.75.75,0,0,1,.75-.75H506.91v-5.22a.73.73,0,0,1,.38-.65.69.69,0,0,1,.37-.1.75.75,0,0,1,.38.1l15.54,9a.77.77,0,0,1,.37.65.74.74,0,0,1-.37.65l-15.54,9A.86.86,0,0,1,507.66,202.23Z"/><path class="cls-2" d="M507.66,183.53l15.54,9-15.54,9v-6H241.24v-6H507.66v-6m0-1.5a1.53,1.53,0,0,0-.75.2,1.51,1.51,0,0,0-.75,1.3V188H241.24a1.5,1.5,0,0,0-1.5,1.5v6a1.5,1.5,0,0,0,1.5,1.5H506.16v4.48a1.5,1.5,0,0,0,2.25,1.3l15.54-9a1.49,1.49,0,0,0,0-2.59l-15.54-9a1.53,1.53,0,0,0-.75-.2Z"/><path d="M507.66,263.25a.69.69,0,0,1-.37-.1.73.73,0,0,1-.38-.65v-5.22H241.24a.75.75,0,0,1-.75-.75v-6a.74.74,0,0,1,.75-.75H506.91v-5.23a.74.74,0,0,1,.38-.65.69.69,0,0,1,.37-.1.75.75,0,0,1,.38.1l15.54,9a.74.74,0,0,1,.37.65.77.77,0,0,1-.37.65l-15.54,9A.75.75,0,0,1,507.66,263.25Z"/><path class="cls-2" d="M507.66,244.55l15.54,9-15.54,9v-6H241.24v-6H507.66v-6m0-1.5a1.53,1.53,0,0,0-.75.2,1.51,1.51,0,0,0-.75,1.3V249H241.24a1.5,1.5,0,0,0-1.5,1.5v6a1.5,1.5,0,0,0,1.5,1.5H506.16v4.47a1.51,1.51,0,0,0,.75,1.3,1.51,1.51,0,0,0,1.5,0l15.54-9a1.5,1.5,0,0,0,.75-1.3,1.48,1.48,0,0,0-.75-1.3l-15.54-9a1.53,1.53,0,0,0-.75-.2Z"/><path d="M1112.75,324.68a.75.75,0,0,1-.38-.1l-15.54-9a.74.74,0,0,1,0-1.29l15.54-9a.75.75,0,0,1,.38-.1.71.71,0,0,1,.37.1.75.75,0,0,1,.38.65v5.22h17.83V257.48H1113.5v5.23a.76.76,0,0,1-.38.65.82.82,0,0,1-.37.1.86.86,0,0,1-.38-.1l-15.54-9a.75.75,0,0,1-.38-.65.78.78,0,0,1,.38-.65l15.54-9a.75.75,0,0,1,.38-.1.71.71,0,0,1,.37.1.75.75,0,0,1,.38.65V250h17.83V196.05H1113.5v5.22a.75.75,0,0,1-.38.65.71.71,0,0,1-.37.1.75.75,0,0,1-.38-.1l-15.54-9a.76.76,0,0,1-.38-.65.75.75,0,0,1,.38-.65l15.54-9a.75.75,0,0,1,.38-.1.71.71,0,0,1,.37.1.75.75,0,0,1,.38.65v5.22h21.58a3.75,3.75,0,0,1,3.75,3.75V250H1333V192.3a3.75,3.75,0,0,1,3.75-3.75h21.54v-5.22a.73.73,0,0,1,.38-.65.69.69,0,0,1,.37-.1.75.75,0,0,1,.38.1l15.54,9a.76.76,0,0,1,.37.65.74.74,0,0,1-.37.65l-15.54,9a.75.75,0,0,1-.38.1.69.69,0,0,1-.37-.1.73.73,0,0,1-.38-.65v-5.22h-17.79V250h17.79v-5.22a.73.73,0,0,1,.38-.65.69.69,0,0,1,.37-.1.75.75,0,0,1,.38.1l15.54,9a.77.77,0,0,1,.37.65.74.74,0,0,1-.37.65l-15.54,9a.86.86,0,0,1-.38.1.79.79,0,0,1-.37-.1.74.74,0,0,1-.38-.65v-5.23h-17.79V311.2h17.79V306a.73.73,0,0,1,.38-.65.69.69,0,0,1,.37-.1.75.75,0,0,1,.38.1l15.54,9a.77.77,0,0,1,.37.65.74.74,0,0,1-.37.65l-15.54,9a.75.75,0,0,1-.38.1.69.69,0,0,1-.37-.1.74.74,0,0,1-.38-.65V318.7h-21.54A3.75,3.75,0,0,1,1333,315V257.48H1138.83V315a3.75,3.75,0,0,1-3.75,3.75H1113.5v5.23a.76.76,0,0,1-.38.65A.71.71,0,0,1,1112.75,324.68Z"/><path class="cls-2" d="M1359.06,183.33l15.54,9-15.54,9v-6h-19.29v55.43h19.29v-6l15.54,9-15.54,9v-6h-19.29V312h19.29v-6l15.54,9-15.54,9v-6h-22.29a3,3,0,0,1-3-3V256.73H1138.08V315a3,3,0,0,1-3,3h-22.33v6l-15.55-9,15.55-9v6h19.33V256.73h-19.33v6l-15.55-9,15.55-9v6h19.33V195.3h-19.33v6l-15.55-9,15.55-9v6h22.33a3,3,0,0,1,3,3v58.43h195.69V192.3a3,3,0,0,1,3-3h22.29v-6m-246.31-1.5a1.43,1.43,0,0,0-.75.2l-15.55,9a1.5,1.5,0,0,0,0,2.6l15.55,9a1.43,1.43,0,0,0,.75.2,1.46,1.46,0,0,0,.75-.2,1.5,1.5,0,0,0,.75-1.3V196.8h16.33v52.43h-16.33v-4.47a1.51,1.51,0,0,0-.75-1.3,1.46,1.46,0,0,0-.75-.2,1.43,1.43,0,0,0-.75.2l-15.55,9a1.5,1.5,0,0,0,0,2.6l15.55,9a1.53,1.53,0,0,0,.75.2,1.56,1.56,0,0,0,.75-.2,1.52,1.52,0,0,0,.75-1.3v-4.48h16.33v52.22h-16.33V306a1.51,1.51,0,0,0-.75-1.3,1.56,1.56,0,0,0-.75-.2,1.53,1.53,0,0,0-.75.2l-15.55,9a1.49,1.49,0,0,0,0,2.59l15.55,9a1.53,1.53,0,0,0,.75.2,1.56,1.56,0,0,0,.75-.2,1.52,1.52,0,0,0,.75-1.3v-4.48h20.83a4.5,4.5,0,0,0,4.5-4.5V258.23h192.69V315a4.5,4.5,0,0,0,4.5,4.5h20.79v4.48a1.5,1.5,0,0,0,2.25,1.3l15.54-9a1.5,1.5,0,0,0,0-2.6l-15.54-9a1.51,1.51,0,0,0-1.5,0,1.51,1.51,0,0,0-.75,1.3v4.47h-16.29V258.23h16.29v4.48a1.5,1.5,0,0,0,2.25,1.3l15.54-9a1.5,1.5,0,0,0,0-2.6l-15.54-9a1.51,1.51,0,0,0-1.5,0,1.51,1.51,0,0,0-.75,1.3v4.47h-16.29V196.8h16.29v4.47a1.5,1.5,0,0,0,.75,1.3,1.51,1.51,0,0,0,1.5,0l15.54-9a1.5,1.5,0,0,0,0-2.6l-15.54-9a1.51,1.51,0,0,0-1.5,0,1.5,1.5,0,0,0-.75,1.3v4.47h-20.79a4.51,4.51,0,0,0-4.5,4.5v56.93H1139.58V192.3a4.51,4.51,0,0,0-4.5-4.5h-20.83v-4.47a1.5,1.5,0,0,0-.75-1.3,1.46,1.46,0,0,0-.75-.2Z"/><path d="M933.66,324.68a.69.69,0,0,1-.37-.1.74.74,0,0,1-.38-.65V318.7H911.05A3.75,3.75,0,0,1,907.3,315V257.48H687.5v5.23a.76.76,0,0,1-.38.65.82.82,0,0,1-.37.1.86.86,0,0,1-.38-.1l-15.54-9a.75.75,0,0,1-.38-.65.78.78,0,0,1,.38-.65l15.54-9a.75.75,0,0,1,.38-.1.71.71,0,0,1,.37.1.75.75,0,0,1,.38.65V250h18.11V196.05H687.5v5.22a.75.75,0,0,1-.38.65.71.71,0,0,1-.37.1.75.75,0,0,1-.38-.1l-15.54-9a.76.76,0,0,1-.38-.65.75.75,0,0,1,.38-.65l15.54-9a.75.75,0,0,1,.38-.1.71.71,0,0,1,.37.1.75.75,0,0,1,.38.65v5.22h21.86a3.75,3.75,0,0,1,3.75,3.75V250H907.3V192.3a3.75,3.75,0,0,1,3.75-3.75h21.86v-5.22a.73.73,0,0,1,.38-.65.69.69,0,0,1,.37-.1.75.75,0,0,1,.38.1l15.54,9a.76.76,0,0,1,.37.65.74.74,0,0,1-.37.65l-15.54,9a.75.75,0,0,1-.38.1.69.69,0,0,1-.37-.1.73.73,0,0,1-.38-.65v-5.22H914.8V250h18.11v-5.22a.73.73,0,0,1,.38-.65.69.69,0,0,1,.37-.1.75.75,0,0,1,.38.1l15.54,9a.77.77,0,0,1,.37.65.74.74,0,0,1-.37.65l-15.54,9a.86.86,0,0,1-.38.1.79.79,0,0,1-.37-.1.74.74,0,0,1-.38-.65v-5.23H914.8V311.2h18.11V306a.73.73,0,0,1,.38-.65.69.69,0,0,1,.37-.1.75.75,0,0,1,.38.1l15.54,9a.77.77,0,0,1,.37.65.74.74,0,0,1-.37.65l-15.54,9A.75.75,0,0,1,933.66,324.68Z"/><path class="cls-2" d="M933.66,183.33l15.54,9-15.54,9v-6H914.05v55.43h19.61v-6l15.54,9-15.54,9v-6H914.05V312h19.61v-6l15.54,9-15.54,9v-6H911.05a3,3,0,0,1-3-3V256.73H686.75v6l-15.55-9,15.55-9v6h19.61V195.3H686.75v6l-15.55-9,15.55-9v6h22.61a3,3,0,0,1,3,3v58.43H908.05V192.3a3,3,0,0,1,3-3h22.61v-6m-246.91-1.5a1.43,1.43,0,0,0-.75.2l-15.55,9a1.5,1.5,0,0,0,0,2.6l15.55,9a1.43,1.43,0,0,0,.75.2,1.46,1.46,0,0,0,.75-.2,1.5,1.5,0,0,0,.75-1.3V196.8h16.61v52.43H688.25v-4.47a1.51,1.51,0,0,0-.75-1.3,1.46,1.46,0,0,0-.75-.2,1.43,1.43,0,0,0-.75.2l-15.55,9a1.5,1.5,0,0,0,0,2.6L686,264a1.53,1.53,0,0,0,.75.2,1.56,1.56,0,0,0,.75-.2,1.52,1.52,0,0,0,.75-1.3v-4.48h218.3V315a4.5,4.5,0,0,0,4.5,4.5h21.11v4.48a1.5,1.5,0,0,0,2.25,1.3l15.54-9a1.5,1.5,0,0,0,0-2.6l-15.54-9a1.51,1.51,0,0,0-1.5,0,1.51,1.51,0,0,0-.75,1.3v4.47H915.55V258.23h16.61v4.48a1.5,1.5,0,0,0,2.25,1.3L950,255a1.5,1.5,0,0,0,0-2.6l-15.54-9a1.51,1.51,0,0,0-1.5,0,1.51,1.51,0,0,0-.75,1.3v4.47H915.55V196.8h16.61v4.47a1.5,1.5,0,0,0,.75,1.3,1.51,1.51,0,0,0,1.5,0l15.54-9a1.5,1.5,0,0,0,0-2.6l-15.54-9a1.51,1.51,0,0,0-1.5,0,1.5,1.5,0,0,0-.75,1.3v4.47H911.05a4.51,4.51,0,0,0-4.5,4.5v56.93H713.86V192.3a4.51,4.51,0,0,0-4.5-4.5H688.25v-4.47a1.5,1.5,0,0,0-.75-1.3,1.46,1.46,0,0,0-.75-.2Z"/><rect class="cls-101" x="91.36" y="167.42" width="159.75" height="49.75"/><path d="M251,167.55v49.5H91.49v-49.5H251m.25-.25h-160v50h160v-50Z"/><text class="cls-216" transform="translate(108.63 200.29)">O<tspan class="cls-217" x="12.77" y="0">v</tspan><tspan class="cls-218" x="22.76" y="0">e</tspan><tspan class="cls-219" x="33.12" y="0">n</tspan><tspan class="cls-220" x="44.28" y="0">L</tspan><tspan class="cls-221" x="54.9" y="0">i</tspan><tspan class="cls-217" x="59.24" y="0">v</tspan><tspan class="cls-222" x="69.22" y="0">e</tspan><tspan class="cls-223" x="79.54" y="0">K</tspan><tspan class="cls-224" x="90.93" y="0">i</tspan><tspan class="cls-225" x="95.4" y="0">t</tspan><tspan class="cls-226" x="102.8" y="0">,</tspan><tspan class="cls-227" x="107.12" y="0"> </tspan><tspan class="cls-228" x="111.58" y="-4.98">..</tspan><tspan class="cls-227" x="120.61" y="-4.98">.</tspan></text><rect class="cls-73" x="30.24" y="167.3" width="60" height="50"/><text class="cls-229" transform="translate(35.86 196.84)">M<tspan class="cls-230" x="12.75" y="0">o</tspan><tspan class="cls-231" x="22.03" y="0">bi</tspan><tspan class="cls-232" x="35.64" y="0">l</tspan><tspan class="cls-233" x="39.68" y="0">e</tspan></text><rect class="cls-101" x="91.36" y="228.65" width="159.75" height="49.75"/><path d="M251,228.78v49.5H91.49v-49.5H251m.25-.25h-160v50h160v-50Z"/><text class="cls-234" transform="translate(100.89 261.51)">O<tspan class="cls-235" x="12.55" y="0">B</tspan><tspan class="cls-236" x="25.21" y="0">S</tspan><tspan class="cls-226" x="36.54" y="0">,</tspan><tspan class="cls-227" x="40.85" y="0"> </tspan><tspan class="cls-132" x="45.32" y="0">W</tspan><tspan class="cls-237" x="59.8" y="0">e</tspan><tspan class="cls-238" x="70.15" y="0">b</tspan><tspan class="cls-239" x="81.24" y="0">c</tspan><tspan class="cls-240" x="91.7" y="0">a</tspan><tspan class="cls-241" x="101.88" y="0">m</tspan><tspan class="cls-226" x="118.29" y="0">,</tspan><tspan class="cls-227" x="122.61" y="0"> </tspan><tspan class="cls-228" x="127.07" y="-4.98">..</tspan><tspan class="cls-227" x="136.1" y="-4.98">.</tspan></text><rect class="cls-73" x="30.24" y="228.53" width="60" height="50"/><text class="cls-242" transform="translate(49.58 258.07)">P<tspan class="cls-233" x="10.54" y="0">C</tspan></text><text class="cls-243" transform="translate(765.95 220.52) scale(0.98 1)">O<tspan class="cls-244" x="9.61" y="0">V</tspan><tspan class="cls-245" x="19.59" y="0">T</tspan><tspan class="cls-246" x="27.98" y="0"> </tspan><tspan class="cls-247" x="31.54" y="0">o</tspan><tspan class="cls-248" x="39.37" y="0">v</tspan><tspan class="cls-249" x="46.87" y="0">e</tspan><tspan class="cls-250" x="54.67" y="0">r </tspan><tspan class="cls-251" x="63.16" y="0">S</tspan><tspan class="cls-252" x="72.08" y="0">R</tspan><tspan class="cls-245" x="81.65" y="0">T</tspan></text><rect class="cls-3" x="730.2" y="228.73" width="160" height="50"/><text class="cls-253" transform="translate(772.43 249.46)">M<tspan class="cls-254" x="13.53" y="0">a</tspan><tspan class="cls-255" x="22.65" y="0">t</tspan><tspan class="cls-256" x="28.57" y="0">c</tspan><tspan class="cls-20" x="37.72" y="0">h </tspan><tspan class="cls-257" x="52.29" y="0">b</tspan><tspan class="cls-20" x="62.04" y="0">y </tspan><tspan class="cls-258"><tspan x="-25.46" y="19.98">D</tspan><tspan class="cls-259" x="-13.48" y="19.98">o</tspan><tspan class="cls-260" x="-3.58" y="19.98">m</tspan><tspan class="cls-261" x="11.99" y="19.98">ai</tspan><tspan class="cls-20" x="25.32" y="19.98">n </tspan><tspan class="cls-262" x="39.92" y="19.98">P</tspan><tspan class="cls-263" x="51.06" y="19.98">a</tspan><tspan class="cls-264" x="60.55" y="19.98">t</tspan><tspan class="cls-265" x="67.67" y="19.98">t</tspan><tspan class="cls-266" x="74.21" y="19.98">e</tspan><tspan class="cls-267" x="83.85" y="19.98">r</tspan><tspan class="cls-20" x="90.45" y="19.98">n</tspan></tspan></text><text class="cls-268" transform="translate(1211.94 296.53) scale(0.98 1)">O<tspan class="cls-269" x="10.18" y="0">u</tspan><tspan class="cls-270" x="19.11" y="0">t</tspan><tspan class="cls-191" x="25.07" y="0">p</tspan><tspan class="cls-138" x="33.95" y="0">u</tspan><tspan class="cls-271" x="42.89" y="0">t</tspan><tspan class="cls-146"><tspan x="-41.02" y="20">- </tspan><tspan class="cls-272" x="-31.85" y="20">U</tspan><tspan class="cls-273" x="-23.26" y="20">n</tspan><tspan class="cls-149" x="-15.91" y="20">d</tspan><tspan class="cls-274" x="-8.68" y="20">e</tspan><tspan x="-1.9" y="20">r </tspan><tspan class="cls-273" x="5.45" y="20">1</tspan><tspan class="cls-275" x="10.31" y="20">-</tspan><tspan class="cls-276" x="16.24" y="20">s</tspan><tspan class="cls-150" x="22.4" y="20">e</tspan><tspan class="cls-277" x="29.26" y="20">c</tspan><tspan x="35.95" y="20">: </tspan><tspan class="cls-196" x="41.92" y="20">W</tspan><tspan class="cls-197" x="51.73" y="20">e</tspan><tspan class="cls-198" x="58.71" y="20">b</tspan><tspan class="cls-199" x="66.13" y="20">R</tspan><tspan class="cls-200" x="74.43" y="20">T</tspan><tspan class="cls-152" x="81.59" y="20">C</tspan><tspan x="-37.27" y="35">- </tspan><tspan class="cls-272" x="-28.1" y="35">U</tspan><tspan class="cls-273" x="-19.51" y="35">n</tspan><tspan class="cls-149" x="-12.16" y="35">d</tspan><tspan class="cls-274" x="-4.93" y="35">e</tspan><tspan x="1.85" y="35">r </tspan><tspan class="cls-278" x="9.2" y="35">3</tspan><tspan class="cls-275" x="16.4" y="35">-</tspan><tspan class="cls-279" x="22.34" y="35">s</tspan><tspan class="cls-150" x="28.49" y="35">e</tspan><tspan class="cls-277" x="35.36" y="35">c</tspan><tspan x="42.04" y="35">: </tspan><tspan class="cls-280" x="48.01" y="35">LL</tspan><tspan class="cls-281" x="62.28" y="35">H</tspan><tspan class="cls-282" x="71.18" y="35">L</tspan><tspan class="cls-152" x="78.41" y="35">S</tspan></tspan></text><rect class="cls-3" x="1155.93" y="228.73" width="160" height="50"/><text class="cls-283" transform="translate(1188.46 258.79)">V<tspan class="cls-261" x="11.5" y="0">i</tspan><tspan class="cls-284" x="15.38" y="0">r</tspan><tspan class="cls-285" x="22.49" y="0">t</tspan><tspan class="cls-286" x="29.15" y="0">u</tspan><tspan class="cls-287" x="39.53" y="0">a</tspan><tspan class="cls-92" x="48.99" y="0">l </tspan><tspan class="cls-288" x="57.05" y="0">H</tspan><tspan class="cls-263" x="69.44" y="0">o</tspan><tspan class="cls-289" x="79.33" y="0">s</tspan><tspan class="cls-20" x="88.25" y="0">t</tspan></text></g></g></svg>